<svg xmlns="http://www.w3.org/2000/svg" version="1.1" xlink="http://www.w3.org/1999/xlink"
    xmlns:svgjs="http://svgjs.com/svgjs" width="100%" height="100%" preserveAspectRatio="xMidYMid meet"
    viewBox="0 0 188.349853515625 146.99697875976562" overflow="visible">
    <defs id="SvgjsDefs6822"></defs>
    <g id="SvgjsG6823" transform="scale(0.4653371320037987)" opacity="1">
        <g id="SvgjsG6824" class="wRO_brBEW"
            transform="translate(104.15174965024134, 75.02258715993696) scale(0.23277852482793965)"
            light-content="false" non-strokable="false" fill="#a08a84" fill-rule="evenodd" clip-rule="evenodd">
            <path
                d="M6 681L358 65c4-6 7-8 14-8h100c6 0 10 2 13 8l356 616c2 4 2 9 0 13l-50 87c-3 5-7 9-13 9H69c-5 0-10-3-12-7L6 694c-3-3-3-10 0-13zm134-7l35-61h391l35 61H140zm485 27c10 0 17-11 12-20L437 336l36-61 282 488H76l-35-62h584zM379 84L41 674h68L449 84h-70zm94 14L191 586h71l199-345c5-10 19-9 24 0l293 508 35-61L473 98zM293 586h257L422 363 293 586z">
            </path>
        </g>
        <g id="SvgjsG6825" class="text" transform="translate(202.37, 57.35) scale(1)" light-content="false"
            fill="#a08a84">
            <path
                d="M-188.74 137.09L-145.09 140.63L-143.88 125.79L-187.54 122.25L-186.33 107.41L-198.75 106.4L-202.37 150.91L-189.95 151.92Z M-191.04 81.3L-138.35 101.05L-133.13 87.11L-185.81 67.36Z M-171.59 36.34L-128.53 72.57L-119.95 62.37L-132.67 51.67C-134.3 50.29 -136.52 48.65 -139.33 46.74C-142.14 44.83 -144.77 43.11 -147.24 41.56L-149.26 40.2L-149.04 39.93L-135.81 45.18L-117.11 51.86L-111.98 45.77L-121.77 28.49L-129.09 16.22L-128.87 15.95L-127.18 17.71C-125.23 19.88 -123.08 22.18 -120.72 24.62C-118.36 27.06 -116.36 28.96 -114.73 30.34L-102.01 41.04L-93.31 30.71L-136.37 -5.52L-146.62 6.67L-134.24 27.72C-133.62 28.77 -132.6 30.34 -131.19 32.43L-128.59 36.33L-128.81 36.59L-133.09 34.69C-135.39 33.66 -137.11 32.92 -138.25 32.49L-161.33 24.16Z M-92.74 -41.48L-71.79 -37.17L-68.81 -47.01L-88.54 -54.92Z M-77.55 -41.82L-61.29 12.04L-40.24 5.69C-34.05 3.82 -29.37 0.96 -26.19 -2.9C-23.01 -6.75 -22.23 -11.33 -23.83 -16.63C-24.84 -20 -26.53 -22.47 -28.87 -24.06C-31.22 -25.64 -33.9 -26.43 -36.91 -26.42L-37.01 -26.75C-35.27 -28.18 -34.1 -30.21 -33.51 -32.83C-32.91 -35.45 -32.98 -37.98 -33.72 -40.41C-35.2 -45.32 -38.07 -48.24 -42.33 -49.16C-46.58 -50.07 -51.86 -49.58 -58.16 -47.68ZM-52.13 -26.53L-56.94 -25.08L-59.99 -35.19L-55.18 -36.64C-52.86 -37.34 -51.04 -37.5 -49.72 -37.11C-48.4 -36.73 -47.49 -35.71 -46.99 -34.05C-46.47 -32.34 -46.63 -30.83 -47.47 -29.52C-48.31 -28.21 -49.87 -27.21 -52.13 -26.53ZM-44.53 -4.95L-50.33 -3.2L-53.79 -14.64L-47.99 -16.39C-45.11 -17.26 -42.88 -17.46 -41.3 -17C-39.72 -16.55 -38.63 -15.35 -38.05 -13.42C-36.85 -9.44 -39.01 -6.62 -44.53 -4.95Z M22.6 1.47L39.15 3.01L29.01 -19.84C31.97 -21.13 34.38 -23.05 36.23 -25.6C38.09 -28.15 39.2 -31.35 39.56 -35.2C40.16 -41.7 38.54 -46.53 34.69 -49.7C30.84 -52.86 25.55 -54.76 18.83 -55.38L-2.38 -57.35L-7.57 -1.32L7.26 0.05L9 -18.74L14.69 -18.21ZM10.08 -30.46L11.36 -44.25L16.71 -43.76C19.75 -43.47 21.96 -42.79 23.34 -41.71C24.72 -40.62 25.3 -38.9 25.08 -36.55C24.85 -34.13 23.92 -32.37 22.28 -31.24C20.64 -30.12 18.36 -29.69 15.43 -29.96Z M69.55 -44.01L48.18 8.04L61.95 13.69L83.32 -38.35Z M85.96 25.07C87.89 29.48 90.92 33.39 95.06 36.82C97.99 39.24 101.18 41.04 104.63 42.22C108.08 43.39 111.25 43.86 114.14 43.63L131.26 22.96L114.72 9.27L106.99 18.6L113.39 23.9L108.42 29.9C107.18 29.77 105.85 29.12 104.43 27.94C100.61 24.78 98.65 21.34 98.57 17.64C98.49 13.94 100.16 10.02 103.58 5.89C106.79 2.02 110.27 -0.24 114.04 -0.9C117.81 -1.57 121.21 -0.65 124.23 1.86C125.83 3.18 127 4.6 127.73 6.11C128.47 7.62 129 9.4 129.31 11.46L141.39 9.1C141.1 6.01 140.2 2.95 138.71 -0.09C137.22 -3.12 134.98 -5.88 132 -8.34C128.09 -11.58 123.73 -13.65 118.94 -14.55C114.14 -15.45 109.34 -14.99 104.53 -13.17C99.72 -11.34 95.38 -8.09 91.52 -3.43C87.58 1.33 85.19 6.16 84.34 11.08C83.49 16 84.03 20.66 85.96 25.07Z M169.09 33.42L118.88 58.8L125.59 72.09L145.52 62.01L153.1 77L133.17 87.07L139.88 100.36L190.1 74.99L183.38 61.7L164.69 71.15L157.11 56.16L175.81 46.71Z M187.54 122.25L143.88 125.79L145.09 140.63L188.74 137.09L189.95 151.92L202.37 150.91L198.75 106.4L186.33 107.41Z">
            </path>
        </g>
        <g id="SvgjsG6826" class="text" transform="translate(202.36000000000004, 307.41352305665066) scale(1)"
            light-content="false" fill="#a08a84">
            <path
                d="M-197.22 -0.17C-196.29 0.24 -195.41 0.45 -194.56 0.45C-193.16 0.45 -191.86 0.06 -190.66 -0.73C-189.46 -1.52 -188.49 -2.66 -187.77 -4.14C-187.04 -5.63 -186.68 -7.38 -186.68 -9.38C-186.68 -12.23 -187.3 -14.48 -188.54 -16.15C-189.78 -17.81 -191.56 -18.64 -193.88 -18.64C-195.76 -18.64 -197.71 -17.76 -199.73 -16.01L-199.66 -19.35L-199.66 -26.78L-202.36 -26.78L-202.36 0L-200.18 0L-199.92 -1.88L-199.81 -1.88C-199.01 -1.15 -198.15 -0.58 -197.22 -0.17ZM-192.18 -2.79C-193.01 -2.18 -193.96 -1.88 -195.01 -1.88C-195.68 -1.88 -196.43 -2.04 -197.24 -2.36C-198.05 -2.69 -198.86 -3.19 -199.66 -3.86L-199.66 -13.69C-197.78 -15.44 -196.07 -16.31 -194.52 -16.31C-192.79 -16.31 -191.53 -15.7 -190.71 -14.46C-189.9 -13.22 -189.49 -11.51 -189.49 -9.34C-189.49 -7.84 -189.73 -6.53 -190.21 -5.4C-190.68 -4.28 -191.34 -3.41 -192.18 -2.79Z M-181.69 -18.19L-181.69 0L-178.99 0L-178.99 -18.19ZM-181.66 -22.62C-181.31 -22.27 -180.86 -22.09 -180.31 -22.09C-179.76 -22.09 -179.31 -22.27 -178.96 -22.62C-178.6 -22.97 -178.43 -23.43 -178.43 -24C-178.43 -24.55 -178.6 -25 -178.96 -25.33C-179.31 -25.67 -179.76 -25.84 -180.31 -25.84C-180.86 -25.84 -181.31 -25.67 -181.66 -25.33C-182.01 -25 -182.18 -24.55 -182.18 -24C-182.18 -23.43 -182.01 -22.97 -181.66 -22.62Z M-172 7.16C-170.64 8.04 -168.82 8.48 -166.54 8.48C-164.77 8.48 -163.19 8.19 -161.82 7.61C-160.44 7.04 -159.38 6.27 -158.63 5.31C-157.88 4.34 -157.5 3.31 -157.5 2.21C-157.5 0.74 -158.01 -0.35 -159.04 -1.05C-160.07 -1.75 -161.64 -2.1 -163.77 -2.1L-167.4 -2.1C-168.58 -2.1 -169.41 -2.28 -169.9 -2.64C-170.39 -3.01 -170.63 -3.51 -170.63 -4.16C-170.63 -4.66 -170.52 -5.08 -170.31 -5.42C-170.1 -5.76 -169.79 -6.09 -169.39 -6.41C-168.54 -5.99 -167.62 -5.78 -166.62 -5.78C-165.39 -5.78 -164.28 -6.04 -163.28 -6.56C-162.28 -7.09 -161.49 -7.83 -160.92 -8.79C-160.34 -9.76 -160.05 -10.86 -160.05 -12.11C-160.05 -12.89 -160.2 -13.63 -160.5 -14.33C-160.8 -15.03 -161.19 -15.6 -161.67 -16.05L-157.8 -16.05L-157.8 -18.19L-164.1 -18.19C-164.95 -18.49 -165.79 -18.64 -166.62 -18.64C-167.84 -18.64 -168.97 -18.37 -169.99 -17.83C-171.02 -17.3 -171.83 -16.53 -172.43 -15.55C-173.03 -14.56 -173.33 -13.43 -173.33 -12.15C-173.33 -11.13 -173.1 -10.19 -172.65 -9.34C-172.2 -8.49 -171.65 -7.8 -171 -7.28L-171 -7.13C-171.55 -6.75 -172.02 -6.27 -172.41 -5.68C-172.8 -5.09 -172.99 -4.45 -172.99 -3.75C-172.99 -3.08 -172.84 -2.49 -172.54 -1.99C-172.24 -1.49 -171.85 -1.09 -171.38 -0.79L-171.38 -0.64C-172.23 -0.06 -172.89 0.59 -173.35 1.31C-173.81 2.04 -174.04 2.79 -174.04 3.56C-174.04 5.09 -173.36 6.29 -172 7.16ZM-163.75 -8.91C-164.53 -8.07 -165.49 -7.65 -166.62 -7.65C-167.77 -7.65 -168.73 -8.07 -169.52 -8.91C-170.31 -9.75 -170.7 -10.83 -170.7 -12.15C-170.7 -13.5 -170.31 -14.58 -169.52 -15.4C-168.73 -16.21 -167.77 -16.61 -166.62 -16.61C-165.47 -16.61 -164.5 -16.21 -163.73 -15.4C-162.95 -14.58 -162.57 -13.5 -162.57 -12.15C-162.57 -10.83 -162.96 -9.75 -163.75 -8.91ZM-163.07 5.98C-163.98 6.34 -165.02 6.53 -166.17 6.53C-167.87 6.53 -169.2 6.23 -170.18 5.63C-171.15 5.03 -171.64 4.21 -171.64 3.19C-171.64 1.94 -170.98 0.85 -169.65 -0.08C-168.88 0.13 -168.1 0.23 -167.33 0.23L-163.99 0.23C-162.72 0.23 -161.77 0.41 -161.14 0.77C-160.52 1.13 -160.2 1.74 -160.2 2.59C-160.2 3.26 -160.45 3.91 -160.95 4.52C-161.45 5.13 -162.16 5.62 -163.07 5.98Z M-141.23 -0.17C-140.3 0.24 -139.41 0.45 -138.56 0.45C-137.16 0.45 -135.86 0.06 -134.66 -0.73C-133.46 -1.52 -132.5 -2.66 -131.77 -4.14C-131.05 -5.63 -130.69 -7.38 -130.69 -9.38C-130.69 -12.23 -131.3 -14.48 -132.54 -16.15C-133.78 -17.81 -135.56 -18.64 -137.89 -18.64C-139.76 -18.64 -141.71 -17.76 -143.74 -16.01L-143.66 -19.35L-143.66 -26.78L-146.36 -26.78L-146.36 0L-144.19 0L-143.93 -1.88L-143.81 -1.88C-143.01 -1.15 -142.15 -0.58 -141.23 -0.17ZM-136.18 -2.79C-137.02 -2.18 -137.96 -1.88 -139.01 -1.88C-139.69 -1.88 -140.43 -2.04 -141.24 -2.36C-142.06 -2.69 -142.86 -3.19 -143.66 -3.86L-143.66 -13.69C-141.79 -15.44 -140.07 -16.31 -138.52 -16.31C-136.8 -16.31 -135.53 -15.7 -134.72 -14.46C-133.91 -13.22 -133.5 -11.51 -133.5 -9.34C-133.5 -7.84 -133.74 -6.53 -134.21 -5.4C-134.69 -4.28 -135.34 -3.41 -136.18 -2.79Z M-125.7 -18.19L-125.7 0L-123 0L-123 -11.85C-122.4 -13.33 -121.68 -14.41 -120.84 -15.11C-120 -15.81 -119.16 -16.16 -118.31 -16.16C-117.81 -16.16 -117.23 -16.06 -116.58 -15.86L-116.06 -18.26C-116.58 -18.51 -117.21 -18.64 -117.93 -18.64C-118.96 -18.64 -119.92 -18.3 -120.82 -17.63C-121.72 -16.95 -122.49 -16.03 -123.11 -14.85L-123.22 -14.85L-123.45 -18.19Z M-110.55 -0.69C-109.27 0.07 -107.88 0.45 -106.38 0.45C-104.88 0.45 -103.49 0.07 -102.22 -0.69C-100.94 -1.46 -99.93 -2.56 -99.16 -3.99C-98.4 -5.43 -98.02 -7.13 -98.02 -9.08C-98.02 -11.03 -98.4 -12.73 -99.16 -14.18C-99.93 -15.63 -100.94 -16.73 -102.22 -17.5C-103.49 -18.26 -104.88 -18.64 -106.38 -18.64C-107.88 -18.64 -109.27 -18.26 -110.55 -17.5C-111.82 -16.73 -112.84 -15.63 -113.6 -14.18C-114.37 -12.73 -114.75 -11.03 -114.75 -9.08C-114.75 -7.13 -114.37 -5.43 -113.6 -3.99C-112.84 -2.56 -111.82 -1.46 -110.55 -0.69ZM-103.51 -2.74C-104.35 -2.14 -105.31 -1.84 -106.38 -1.84C-108.01 -1.84 -109.33 -2.5 -110.36 -3.83C-111.38 -5.15 -111.9 -6.9 -111.9 -9.08C-111.9 -10.5 -111.66 -11.76 -111.2 -12.86C-110.74 -13.96 -110.09 -14.82 -109.25 -15.43C-108.41 -16.05 -107.46 -16.35 -106.38 -16.35C-105.31 -16.35 -104.35 -16.05 -103.51 -15.43C-102.68 -14.82 -102.02 -13.96 -101.54 -12.86C-101.07 -11.76 -100.83 -10.5 -100.83 -9.08C-100.83 -7.65 -101.07 -6.39 -101.54 -5.29C-102.02 -4.19 -102.68 -3.34 -103.51 -2.74Z M-92.02 -1.09C-91.24 -0.06 -89.96 0.45 -88.16 0.45C-87.33 0.45 -86.24 0.23 -84.89 -0.23L-85.46 -2.29C-86.33 -1.96 -87.03 -1.8 -87.56 -1.8C-88.61 -1.8 -89.35 -2.1 -89.79 -2.7C-90.22 -3.3 -90.44 -4.2 -90.44 -5.4L-90.44 -15.94L-85.46 -15.94L-85.46 -18.19L-90.44 -18.19L-90.44 -23.33L-92.73 -23.33L-93.07 -18.19L-95.92 -18L-95.92 -15.94L-93.18 -15.94L-93.18 -5.48C-93.18 -3.58 -92.79 -2.11 -92.02 -1.09Z M-81.25 -26.78L-81.25 0L-78.55 0L-78.55 -13.31C-77.53 -14.34 -76.63 -15.08 -75.85 -15.55C-75.08 -16.01 -74.24 -16.24 -73.34 -16.24C-72.07 -16.24 -71.15 -15.84 -70.58 -15.04C-70.02 -14.24 -69.74 -12.96 -69.74 -11.21L-69.74 0L-67 0L-67 -11.55C-67 -13.9 -67.45 -15.67 -68.35 -16.86C-69.25 -18.05 -70.65 -18.64 -72.55 -18.64C-73.7 -18.64 -74.75 -18.37 -75.7 -17.83C-76.65 -17.3 -77.63 -16.53 -78.63 -15.53L-78.55 -19.35L-78.55 -26.78Z M-47.24 -8.48C-47.16 -8.93 -47.13 -9.48 -47.13 -10.13C-47.13 -12.78 -47.76 -14.86 -49.02 -16.37C-50.28 -17.88 -52.04 -18.64 -54.29 -18.64C-55.69 -18.64 -57.01 -18.25 -58.26 -17.46C-59.51 -16.67 -60.52 -15.55 -61.28 -14.1C-62.05 -12.65 -62.43 -10.98 -62.43 -9.08C-62.43 -7.15 -62.05 -5.46 -61.28 -4.01C-60.52 -2.56 -59.48 -1.46 -58.17 -0.69C-56.86 0.07 -55.4 0.45 -53.8 0.45C-52.63 0.45 -51.56 0.28 -50.61 -0.06C-49.66 -0.39 -48.74 -0.85 -47.84 -1.43L-48.85 -3.23C-50.33 -2.25 -51.86 -1.76 -53.46 -1.76C-55.19 -1.76 -56.65 -2.35 -57.83 -3.53C-59.02 -4.7 -59.68 -6.35 -59.8 -8.48ZM-49.56 -10.46L-59.73 -10.46C-59.53 -12.39 -58.9 -13.86 -57.85 -14.89C-56.8 -15.91 -55.6 -16.43 -54.25 -16.43C-52.78 -16.43 -51.63 -15.91 -50.8 -14.89C-49.98 -13.86 -49.56 -12.39 -49.56 -10.46Z M-42.55 -18.19L-42.55 0L-39.85 0L-39.85 -11.85C-39.25 -13.33 -38.53 -14.41 -37.69 -15.11C-36.85 -15.81 -36.01 -16.16 -35.16 -16.16C-34.66 -16.16 -34.09 -16.06 -33.44 -15.86L-32.91 -18.26C-33.44 -18.51 -34.06 -18.64 -34.79 -18.64C-35.81 -18.64 -36.77 -18.3 -37.67 -17.63C-38.57 -16.95 -39.34 -16.03 -39.96 -14.85L-40.07 -14.85L-40.3 -18.19Z M-22.3 -18.19L-22.3 0L-19.6 0L-19.6 -18.19ZM-22.26 -22.62C-21.91 -22.27 -21.46 -22.09 -20.91 -22.09C-20.36 -22.09 -19.91 -22.27 -19.56 -22.62C-19.21 -22.97 -19.03 -23.43 -19.03 -24C-19.03 -24.55 -19.21 -25 -19.56 -25.33C-19.91 -25.67 -20.36 -25.84 -20.91 -25.84C-21.46 -25.84 -21.91 -25.67 -22.26 -25.33C-22.61 -25 -22.78 -24.55 -22.78 -24C-22.78 -23.43 -22.61 -22.97 -22.26 -22.62Z M-12.21 -0.24C-11.03 0.22 -9.82 0.45 -8.57 0.45C-7.22 0.45 -6.05 0.21 -5.06 -0.26C-4.08 -0.74 -3.33 -1.38 -2.81 -2.19C-2.3 -3.01 -2.04 -3.9 -2.04 -4.88C-2.04 -5.95 -2.31 -6.83 -2.83 -7.52C-3.36 -8.21 -3.98 -8.74 -4.71 -9.11C-5.43 -9.49 -6.43 -9.91 -7.71 -10.39C-8.66 -10.76 -9.39 -11.07 -9.92 -11.31C-10.45 -11.55 -10.89 -11.86 -11.25 -12.26C-11.61 -12.66 -11.8 -13.14 -11.8 -13.69C-11.8 -14.46 -11.5 -15.12 -10.9 -15.66C-10.3 -16.2 -9.42 -16.46 -8.27 -16.46C-7.49 -16.46 -6.78 -16.33 -6.13 -16.05C-5.48 -15.78 -4.79 -15.38 -4.07 -14.85L-2.76 -16.61C-3.51 -17.21 -4.36 -17.7 -5.31 -18.08C-6.26 -18.45 -7.24 -18.64 -8.27 -18.64C-10.17 -18.64 -11.68 -18.16 -12.79 -17.2C-13.9 -16.23 -14.46 -15.01 -14.46 -13.54C-14.46 -12.16 -13.97 -11.11 -13 -10.37C-12.02 -9.63 -10.67 -8.95 -8.94 -8.33C-7.59 -7.85 -6.55 -7.35 -5.81 -6.83C-5.08 -6.3 -4.71 -5.6 -4.71 -4.73C-4.71 -3.85 -5.03 -3.13 -5.68 -2.55C-6.33 -1.98 -7.26 -1.69 -8.46 -1.69C-9.51 -1.69 -10.46 -1.88 -11.31 -2.25C-12.16 -2.63 -13.03 -3.18 -13.93 -3.9L-15.32 -2.06C-14.42 -1.31 -13.38 -0.71 -12.21 -0.24Z M12.6 -0.69C13.89 0.07 15.33 0.45 16.93 0.45C18.01 0.45 19.05 0.24 20.05 -0.17C21.05 -0.58 21.96 -1.15 22.78 -1.88L21.58 -3.71C20.21 -2.46 18.73 -1.84 17.16 -1.84C15.41 -1.84 14 -2.5 12.92 -3.83C11.85 -5.15 11.31 -6.9 11.31 -9.08C11.31 -10.5 11.56 -11.76 12.08 -12.86C12.59 -13.96 13.3 -14.82 14.2 -15.43C15.1 -16.05 16.11 -16.35 17.23 -16.35C17.93 -16.35 18.58 -16.21 19.18 -15.92C19.78 -15.63 20.38 -15.21 20.98 -14.66L22.41 -16.46C20.86 -17.91 19.1 -18.64 17.12 -18.64C15.57 -18.64 14.13 -18.26 12.81 -17.5C11.48 -16.73 10.43 -15.63 9.64 -14.18C8.85 -12.73 8.46 -11.03 8.46 -9.08C8.46 -7.1 8.83 -5.4 9.56 -3.98C10.3 -2.55 11.31 -1.46 12.6 -0.69Z M26.91 -18.19L26.91 0L29.61 0L29.61 -11.85C30.21 -13.33 30.93 -14.41 31.77 -15.11C32.6 -15.81 33.45 -16.16 34.3 -16.16C34.8 -16.16 35.37 -16.06 36.02 -15.86L36.55 -18.26C36.02 -18.51 35.4 -18.64 34.67 -18.64C33.65 -18.64 32.69 -18.3 31.79 -17.63C30.89 -16.95 30.12 -16.03 29.5 -14.85L29.39 -14.85L29.16 -18.19Z M53.05 -8.48C53.13 -8.93 53.16 -9.48 53.16 -10.13C53.16 -12.78 52.53 -14.86 51.27 -16.37C50.01 -17.88 48.25 -18.64 46 -18.64C44.6 -18.64 43.27 -18.25 42.02 -17.46C40.77 -16.67 39.77 -15.55 39.01 -14.1C38.24 -12.65 37.86 -10.98 37.86 -9.08C37.86 -7.15 38.24 -5.46 39.01 -4.01C39.77 -2.56 40.81 -1.46 42.12 -0.69C43.43 0.07 44.89 0.45 46.49 0.45C47.66 0.45 48.73 0.28 49.68 -0.06C50.63 -0.39 51.55 -0.85 52.45 -1.43L51.44 -3.23C49.96 -2.25 48.43 -1.76 46.82 -1.76C45.1 -1.76 43.64 -2.35 42.46 -3.53C41.27 -4.7 40.61 -6.35 40.49 -8.48ZM50.73 -10.46L40.56 -10.46C40.76 -12.39 41.39 -13.86 42.44 -14.89C43.49 -15.91 44.69 -16.43 46.04 -16.43C47.51 -16.43 48.66 -15.91 49.49 -14.89C50.31 -13.86 50.73 -12.39 50.73 -10.46Z M57.51 -0.9C58.51 0 59.79 0.45 61.34 0.45C63.26 0.45 65.3 -0.44 67.45 -2.21L67.57 -2.21L67.79 0L70.04 0L70.04 -11.25C70.04 -13.55 69.54 -15.36 68.54 -16.67C67.54 -17.98 65.99 -18.64 63.89 -18.64C61.59 -18.64 59.24 -17.84 56.84 -16.24L57.93 -14.36C59.88 -15.69 61.71 -16.35 63.44 -16.35C64.86 -16.35 65.87 -15.9 66.46 -14.98C67.05 -14.07 67.34 -12.9 67.34 -11.48C63.39 -11.05 60.51 -10.31 58.71 -9.24C56.91 -8.18 56.01 -6.66 56.01 -4.69C56.01 -3.06 56.51 -1.8 57.51 -0.9ZM64.62 -2.38C63.78 -1.97 62.93 -1.76 62.05 -1.76C61.08 -1.76 60.28 -2.02 59.65 -2.53C59.03 -3.04 58.71 -3.81 58.71 -4.84C58.71 -6.11 59.37 -7.14 60.68 -7.91C62 -8.69 64.21 -9.26 67.34 -9.64L67.34 -4.31C66.37 -3.44 65.46 -2.79 64.62 -2.38Z M77.17 -1.09C77.94 -0.06 79.23 0.45 81.03 0.45C81.85 0.45 82.94 0.23 84.29 -0.23L83.73 -2.29C82.85 -1.96 82.15 -1.8 81.63 -1.8C80.58 -1.8 79.84 -2.1 79.4 -2.7C78.96 -3.3 78.74 -4.2 78.74 -5.4L78.74 -15.94L83.73 -15.94L83.73 -18.19L78.74 -18.19L78.74 -23.33L76.45 -23.33L76.12 -18.19L73.27 -18L73.27 -15.94L76 -15.94L76 -5.48C76 -3.58 76.39 -2.11 77.17 -1.09Z M87.93 -18.19L87.93 0L90.63 0L90.63 -18.19ZM87.97 -22.62C88.32 -22.27 88.77 -22.09 89.32 -22.09C89.87 -22.09 90.32 -22.27 90.67 -22.62C91.02 -22.97 91.19 -23.43 91.19 -24C91.19 -24.55 91.02 -25 90.67 -25.33C90.32 -25.67 89.87 -25.84 89.32 -25.84C88.77 -25.84 88.32 -25.67 87.97 -25.33C87.62 -25 87.44 -24.55 87.44 -24C87.44 -23.43 87.62 -22.97 87.97 -22.62Z M97.01 -18.19L97.01 0L99.71 0L99.71 -13.31C100.73 -14.34 101.63 -15.08 102.41 -15.55C103.18 -16.01 104.02 -16.24 104.92 -16.24C106.2 -16.24 107.11 -15.84 107.68 -15.04C108.24 -14.24 108.52 -12.96 108.52 -11.21L108.52 0L111.26 0L111.26 -11.55C111.26 -13.9 110.81 -15.67 109.91 -16.86C109.01 -18.05 107.61 -18.64 105.71 -18.64C104.56 -18.64 103.5 -18.36 102.54 -17.81C101.58 -17.26 100.59 -16.49 99.59 -15.49L99.48 -15.49L99.26 -18.19Z M117.99 7.16C119.35 8.04 121.17 8.48 123.45 8.48C125.22 8.48 126.8 8.19 128.17 7.61C129.55 7.04 130.61 6.27 131.36 5.31C132.11 4.34 132.49 3.31 132.49 2.21C132.49 0.74 131.97 -0.35 130.95 -1.05C129.92 -1.75 128.35 -2.1 126.22 -2.1L122.59 -2.1C121.41 -2.1 120.58 -2.28 120.09 -2.64C119.6 -3.01 119.36 -3.51 119.36 -4.16C119.36 -4.66 119.47 -5.08 119.68 -5.42C119.89 -5.76 120.2 -6.09 120.6 -6.41C121.45 -5.99 122.37 -5.78 123.37 -5.78C124.6 -5.78 125.71 -6.04 126.71 -6.56C127.71 -7.09 128.5 -7.83 129.07 -8.79C129.65 -9.76 129.94 -10.86 129.94 -12.11C129.94 -12.89 129.79 -13.63 129.49 -14.33C129.19 -15.03 128.8 -15.6 128.32 -16.05L132.19 -16.05L132.19 -18.19L125.89 -18.19C125.04 -18.49 124.2 -18.64 123.37 -18.64C122.15 -18.64 121.02 -18.37 120 -17.83C118.97 -17.3 118.16 -16.53 117.56 -15.55C116.96 -14.56 116.66 -13.43 116.66 -12.15C116.66 -11.13 116.88 -10.19 117.33 -9.34C117.78 -8.49 118.33 -7.8 118.98 -7.28L118.98 -7.13C118.43 -6.75 117.97 -6.27 117.58 -5.68C117.19 -5.09 117 -4.45 117 -3.75C117 -3.08 117.15 -2.49 117.45 -1.99C117.75 -1.49 118.13 -1.09 118.61 -0.79L118.61 -0.64C117.76 -0.06 117.1 0.59 116.64 1.31C116.18 2.04 115.95 2.79 115.95 3.56C115.95 5.09 116.63 6.29 117.99 7.16ZM126.24 -8.91C125.45 -8.07 124.5 -7.65 123.37 -7.65C122.22 -7.65 121.25 -8.07 120.47 -8.91C119.68 -9.75 119.28 -10.83 119.28 -12.15C119.28 -13.5 119.68 -14.58 120.47 -15.4C121.25 -16.21 122.22 -16.61 123.37 -16.61C124.52 -16.61 125.49 -16.21 126.26 -15.4C127.04 -14.58 127.42 -13.5 127.42 -12.15C127.42 -10.83 127.03 -9.75 126.24 -8.91ZM126.92 5.98C126 6.34 124.97 6.53 123.82 6.53C122.12 6.53 120.78 6.23 119.81 5.63C118.83 5.03 118.35 4.21 118.35 3.19C118.35 1.94 119.01 0.85 120.33 -0.08C121.11 0.13 121.88 0.23 122.66 0.23L126 0.23C127.27 0.23 128.22 0.41 128.85 0.77C129.47 1.13 129.79 1.74 129.79 2.59C129.79 3.26 129.54 3.91 129.04 4.52C128.54 5.13 127.83 5.62 126.92 5.98Z M149.1 7.58C149.73 7.83 150.41 7.95 151.16 7.95C152.81 7.95 154.16 7.39 155.2 6.28C156.23 5.17 157.1 3.64 157.8 1.69L164.7 -18.19L162.04 -18.19L158.63 -7.76L158.14 -6.11C157.76 -4.86 157.4 -3.71 157.05 -2.66L156.9 -2.66L155.1 -7.76L151.2 -18.19L148.39 -18.19L155.74 0.11L155.29 1.5C154.86 2.78 154.3 3.79 153.6 4.54C152.9 5.29 152.05 5.66 151.05 5.66C150.6 5.66 150.13 5.56 149.63 5.36Z M171 -0.69C172.28 0.07 173.67 0.45 175.17 0.45C176.67 0.45 178.05 0.07 179.33 -0.69C180.61 -1.46 181.62 -2.56 182.39 -3.99C183.15 -5.43 183.53 -7.13 183.53 -9.08C183.53 -11.03 183.15 -12.73 182.39 -14.18C181.62 -15.63 180.61 -16.73 179.33 -17.5C178.05 -18.26 176.67 -18.64 175.17 -18.64C173.67 -18.64 172.28 -18.26 171 -17.5C169.73 -16.73 168.71 -15.63 167.95 -14.18C167.18 -12.73 166.8 -11.03 166.8 -9.08C166.8 -7.13 167.18 -5.43 167.95 -3.99C168.71 -2.56 169.73 -1.46 171 -0.69ZM178.04 -2.74C177.2 -2.14 176.24 -1.84 175.17 -1.84C173.54 -1.84 172.22 -2.5 171.19 -3.83C170.17 -5.15 169.65 -6.9 169.65 -9.08C169.65 -10.5 169.89 -11.76 170.35 -12.86C170.81 -13.96 171.46 -14.82 172.3 -15.43C173.14 -16.05 174.09 -16.35 175.17 -16.35C176.24 -16.35 177.2 -16.05 178.04 -15.43C178.87 -14.82 179.53 -13.96 180.01 -12.86C180.48 -11.76 180.72 -10.5 180.72 -9.08C180.72 -7.65 180.48 -6.39 180.01 -5.29C179.53 -4.19 178.87 -3.34 178.04 -2.74Z M189.57 -1.33C190.47 -0.14 191.86 0.45 193.73 0.45C194.91 0.45 195.98 0.16 196.94 -0.41C197.9 -0.99 198.85 -1.81 199.77 -2.89L199.88 -2.89L200.11 0L202.4 0L202.4 -18.19L199.66 -18.19L199.66 -5.14C198.71 -3.99 197.85 -3.16 197.09 -2.66C196.33 -2.16 195.48 -1.91 194.56 -1.91C193.28 -1.91 192.36 -2.32 191.78 -3.13C191.21 -3.94 190.92 -5.23 190.92 -6.98L190.92 -18.19L188.22 -18.19L188.22 -6.64C188.22 -4.29 188.67 -2.52 189.57 -1.33Z">
            </path>
        </g>
    </g>
</svg>