<svg style="display:none;" xmlns="http://www.w3.org/2000/svg">
  <!-- ################################################################ -->
  <!-- Begining Logo BodyBalance-->
  <symbol id="body_balance_logo" viewBox="0 0 291.11 121">
    <path fill="#a08a84"
      d="M181.65,107.86v-6.6h2.48a6.14,6.14,0,0,1,1,.07,1.83,1.83,0,0,1,.81.31,1.57,1.57,0,0,1,.53.63,2,2,0,0,1,.2.9,2.07,2.07,0,0,1-.53,1.43,2.59,2.59,0,0,1-1.94.58h-1.69v2.68Zm.87-3.46h1.71a1.82,1.82,0,0,0,1.2-.31,1.15,1.15,0,0,0,.35-.89,1.19,1.19,0,0,0-.21-.71,1,1,0,0,0-.55-.39,3.65,3.65,0,0,0-.81-.06h-1.69Z" />
    <path fill="#a08a84" d="M190.71,107.86v-6.6h.87v6.6Z" />
    <path fill="#a08a84" d="M195.85,107.86v-6.6h.88v5.83H200v.77Z" />
    <path fill="#a08a84"
      d="M203.06,107.86l2.53-6.6h.94l2.7,6.6h-1l-.77-2h-2.76l-.72,2Zm1.9-2.71h2.24l-.69-1.82c-.21-.56-.37-1-.47-1.37a8.46,8.46,0,0,1-.35,1.26Z" />
    <path fill="#a08a84" d="M213.69,107.86V102h-2.17v-.78h5.23V102h-2.18v5.82Z" />
    <path fill="#a08a84" d="M220.43,107.86v-6.6h4.77V102h-3.9v2H225v.77H221.3v2.25h4.06v.77Z" />
    <path fill="#a08a84"
      d="M229,105.74l.82-.07a1.81,1.81,0,0,0,.28.82,1.46,1.46,0,0,0,.66.51,2.53,2.53,0,0,0,1,.19,2.68,2.68,0,0,0,.89-.14,1.31,1.31,0,0,0,.57-.41,1,1,0,0,0,.18-.57.88.88,0,0,0-.18-.54,1.44,1.44,0,0,0-.59-.39,10.3,10.3,0,0,0-1.18-.32,6.25,6.25,0,0,1-1.27-.41,1.82,1.82,0,0,1-.71-.62,1.53,1.53,0,0,1-.23-.82,1.67,1.67,0,0,1,.29-.93,1.75,1.75,0,0,1,.82-.66,3.19,3.19,0,0,1,1.22-.23,3.23,3.23,0,0,1,1.29.24,1.92,1.92,0,0,1,.86.69,2.09,2.09,0,0,1,.33,1l-.84.07a1.37,1.37,0,0,0-.46-1,1.79,1.79,0,0,0-1.15-.32,1.85,1.85,0,0,0-1.15.29.9.9,0,0,0-.37.7.77.77,0,0,0,.26.59,3.56,3.56,0,0,0,1.32.47,8.54,8.54,0,0,1,1.46.42,2,2,0,0,1,.85.67,1.67,1.67,0,0,1,.27.94,1.79,1.79,0,0,1-.3,1,2,2,0,0,1-.86.73,3.08,3.08,0,0,1-1.28.26,3.91,3.91,0,0,1-1.5-.26,2.17,2.17,0,0,1-1-.79A2.2,2.2,0,0,1,229,105.74Z" />
    <path fill="#a08a84"
      d="M243.27,105.74l.83-.07a1.94,1.94,0,0,0,.27.82,1.46,1.46,0,0,0,.66.51,2.54,2.54,0,0,0,1,.19,2.66,2.66,0,0,0,.88-.14,1.31,1.31,0,0,0,.57-.41,1,1,0,0,0,.19-.57.88.88,0,0,0-.18-.54,1.42,1.42,0,0,0-.6-.39,10.56,10.56,0,0,0-1.17-.32,6.4,6.4,0,0,1-1.28-.41,1.78,1.78,0,0,1-.7-.62,1.45,1.45,0,0,1-.23-.82,1.66,1.66,0,0,1,.28-.93,1.78,1.78,0,0,1,.83-.66,3.14,3.14,0,0,1,1.21-.23,3.23,3.23,0,0,1,1.29.24,2,2,0,0,1,.87.69,2.08,2.08,0,0,1,.32,1l-.84.07a1.36,1.36,0,0,0-.45-1,1.81,1.81,0,0,0-1.15-.32,1.88,1.88,0,0,0-1.16.29.89.89,0,0,0-.36.7.76.76,0,0,0,.25.59,3.56,3.56,0,0,0,1.32.47,8.54,8.54,0,0,1,1.46.42,2,2,0,0,1,.85.67,1.6,1.6,0,0,1,.28.94,1.79,1.79,0,0,1-.3,1,2,2,0,0,1-.87.73,3.07,3.07,0,0,1-1.27.26,3.84,3.84,0,0,1-1.5-.26,2.12,2.12,0,0,1-1-.79A2.29,2.29,0,0,1,243.27,105.74Z" />
    <path fill="#a08a84" d="M254.17,107.86V102H252v-.78h5.23V102H255v5.82Z" />
    <path fill="#a08a84"
      d="M265.22,101.26h.87v3.82a4.51,4.51,0,0,1-.23,1.58,1.91,1.91,0,0,1-.81,1,2.81,2.81,0,0,1-1.54.37,3.23,3.23,0,0,1-1.52-.32,1.86,1.86,0,0,1-.84-.93,4.33,4.33,0,0,1-.25-1.65v-3.82h.87v3.81a3.87,3.87,0,0,0,.16,1.27,1.25,1.25,0,0,0,.55.63,1.88,1.88,0,0,0,.95.22,1.84,1.84,0,0,0,1.38-.44,2.53,2.53,0,0,0,.41-1.68Z" />
    <path fill="#a08a84"
      d="M270.31,107.86v-6.6h2.27a5.66,5.66,0,0,1,1.18.1,2.26,2.26,0,0,1,1,.47,2.86,2.86,0,0,1,.78,1.13,4.93,4.93,0,0,1,.08,2.9,3.3,3.3,0,0,1-.45,1,2.14,2.14,0,0,1-.6.6,2.27,2.27,0,0,1-.79.33,4.26,4.26,0,0,1-1.06.11Zm.87-.77h1.41a3.15,3.15,0,0,0,1-.13,1.48,1.48,0,0,0,.59-.34,1.92,1.92,0,0,0,.48-.83,4,4,0,0,0,.18-1.27,3.17,3.17,0,0,0-.34-1.6,1.71,1.71,0,0,0-.83-.74,3.37,3.37,0,0,0-1.13-.14h-1.39Z" />
    <path fill="#a08a84" d="M279.88,107.86v-6.6h.88v6.6Z" />
    <path fill="#a08a84"
      d="M284.8,104.65a3.58,3.58,0,0,1,.88-2.57,3,3,0,0,1,2.28-.93,3.14,3.14,0,0,1,1.64.43,2.87,2.87,0,0,1,1.12,1.22,4.18,4.18,0,0,1,0,3.57,2.73,2.73,0,0,1-1.15,1.2,3.26,3.26,0,0,1-1.6.41,3.11,3.11,0,0,1-1.66-.45,3,3,0,0,1-1.12-1.23A3.76,3.76,0,0,1,284.8,104.65Zm.9,0a2.61,2.61,0,0,0,.64,1.88,2.24,2.24,0,0,0,3.23,0,2.85,2.85,0,0,0,.64-2,3.26,3.26,0,0,0-.28-1.41,2.06,2.06,0,0,0-.79-.93,2.16,2.16,0,0,0-1.18-.33,2.19,2.19,0,0,0-1.59.64A2.81,2.81,0,0,0,285.7,104.66Z" />
    <path fill="#606c50"
      d="M2.92,61.6H0V59.8H13.24c4.58,0,8,3.05,8,7.86a7.17,7.17,0,0,1-4.09,6.87v.09c3.1.85,5.35,3.9,5.35,7.94,0,5.25-3.73,8.67-8.76,8.67H5.52c-1.84,0-2.6-.77-2.6-2.61ZM13.2,73.81a5.75,5.75,0,0,0,6-6.15c0-3.68-2.33-6.06-6-6.06H4.85V73.81ZM5.84,89.43h7.67c4.22,0,6.92-2.6,6.92-6.87a6.6,6.6,0,0,0-7-7H4.85V88.44A.88.88,0,0,0,5.84,89.43Z" />
    <path fill="#606c50"
      d="M38,68.24A11.55,11.55,0,0,1,49.65,79.87a11.63,11.63,0,1,1-23.25,0A11.54,11.54,0,0,1,38,68.24Zm0,21.68a9.76,9.76,0,0,0,9.66-10,9.66,9.66,0,1,0-19.31,0A9.76,9.76,0,0,0,38,89.92Z" />
    <path fill="#606c50"
      d="M63.39,68.24a8.43,8.43,0,0,1,7.67,4.85h.09s-.09-.81-.09-1.84V62.49a.87.87,0,0,0-1-1H68.15V59.8h2.2c1.84,0,2.6.76,2.6,2.6V88.53a.88.88,0,0,0,1,1h1.93v1.71h-2.2c-1.84,0-2.61-.77-2.61-2.61a14.11,14.11,0,0,1,.09-1.7h-.09a8.36,8.36,0,0,1-8,4.84c-6,0-9.7-4.8-9.7-11.76C53.33,72.86,57.51,68.24,63.39,68.24Zm-.27,21.68c4.13,0,8-2.91,8-10,0-5-2.56-9.92-7.81-9.92-4.4,0-8,3.68-8,10C55.31,86.06,58.54,89.92,63.12,89.92Z" />
    <path fill="#606c50"
      d="M77.26,98.54l1.12-1.43a4.73,4.73,0,0,0,3.37,1.75c2.15,0,3.5-1.93,4.4-4l1.61-3.73L79.64,71.56a1.56,1.56,0,0,0-1.71-1.07h-.36V68.78h.32c2.24,0,2.78.4,3.68,2.6l6.37,15.31c.45,1.08.77,2.11.77,2.11h.09s.31-1,.76-2.11l6.33-15.31c.9-2.2,1.44-2.6,3.68-2.6h.32v1.71h-.36a1.56,1.56,0,0,0-1.71,1.07L87.45,96.48c-1,2.33-2.87,4.17-5.7,4.17A5.87,5.87,0,0,1,77.26,98.54Z" />
    <path fill="#606c50"
      d="M139.51,62.45h-2.92V59.67H150c4.94,0,8.53,3,8.53,7.94a7.3,7.3,0,0,1-4,6.87v.09c3.18.9,5.25,4,5.25,7.81,0,5.61-4.13,8.85-9.43,8.85h-8.13c-1.93,0-2.73-.81-2.73-2.74ZM150,73.36a5.16,5.16,0,0,0,5.3-5.52,5,5,0,0,0-5.39-5.39h-7.27V73.36Zm-6.37,15.08h6.73c3.82,0,6.2-2.38,6.2-6.15a5.9,5.9,0,0,0-6.2-6.24h-7.72V87.46A.88.88,0,0,0,143.64,88.44Z" />
    <path fill="#606c50"
      d="M177,77.31h1.26V77c0-4.66-1.66-6.33-5.79-6.33-1.17,0-4.4.32-4.4,2v1.44h-3V71.92c0-3.14,5.39-3.81,7.32-3.81,7.19,0,8.89,3.77,8.89,8.66V87.59a.88.88,0,0,0,1,1h1.88v2.65h-3.09c-1.93,0-2.7-.86-2.7-2.65,0-1,.05-1.71.05-1.71h-.09a8.16,8.16,0,0,1-7.54,4.89c-3.77,0-7.64-2.19-7.64-6.59C163.16,77.53,173.09,77.31,177,77.31Zm-5.66,11.9c4.36,0,6.92-4.49,6.92-8.44v-1H177c-3.55,0-10.69.14-10.69,5.17C166.26,87,168,89.21,171.33,89.21Z" />
    <path fill="#606c50"
      d="M188.17,63.3a.88.88,0,0,0-1-1H185.3V59.67h3.18c1.93,0,2.74.8,2.74,2.73V87.59a.88.88,0,0,0,1,1h1.89v2.65h-3.19c-1.93,0-2.74-.81-2.74-2.74Z" />
    <path fill="#606c50"
      d="M210.39,77.31h1.26V77c0-4.66-1.66-6.33-5.79-6.33-1.17,0-4.4.32-4.4,2v1.44h-3V71.92c0-3.14,5.39-3.81,7.32-3.81,7.19,0,8.89,3.77,8.89,8.66V87.59a.88.88,0,0,0,1,1h1.88v2.65h-3.09c-1.93,0-2.7-.86-2.7-2.65,0-1,.05-1.71.05-1.71h-.09a8.16,8.16,0,0,1-7.54,4.89c-3.78,0-7.64-2.19-7.64-6.59C196.56,77.53,206.49,77.31,210.39,77.31Zm-5.66,11.9c4.36,0,6.92-4.49,6.92-8.44v-1h-1.3c-3.55,0-10.69.14-10.69,5.17C199.66,87,201.37,89.21,204.73,89.21Z" />
    <path fill="#606c50"
      d="M222.2,72.28a.88.88,0,0,0-1-1h-1.89V68.64h3.1c1.93,0,2.74.81,2.74,2.52v1a14.56,14.56,0,0,1-.09,1.62h.09a9.71,9.71,0,0,1,9-5.7c5.62,0,7.59,3.18,7.59,8.75V87.59a.88.88,0,0,0,1,1h1.88v2.65h-3.18c-1.93,0-2.74-.81-2.74-2.74V77.67c0-3.55-.59-6.69-4.94-6.69a8.53,8.53,0,0,0-8.17,6.37,11.22,11.22,0,0,0-.36,3.06V91.23H222.2Z" />
    <path fill="#606c50"
      d="M259,68.11c2.6,0,8,1.07,8,4.8v2h-2.83v-1.3c0-1.89-3.28-2.79-5.21-2.79-4.85,0-8.75,3.64-8.75,9.12a8.66,8.66,0,0,0,8.88,9,10,10,0,0,0,7.28-3.19l1.39,2.29A11.92,11.92,0,0,1,259,91.76,11.83,11.83,0,1,1,259,68.11Z" />
    <path fill="#606c50"
      d="M281.68,68.11c6.24,0,9.43,4.8,9.43,10.41,0,.58-.09,1.35-.09,1.53H273.69c.09,5.74,4.08,8.93,8.75,8.93a11.28,11.28,0,0,0,6.87-2.69l1.39,2.33a13.69,13.69,0,0,1-8.35,3.14A11.44,11.44,0,0,1,270.5,80C270.5,72.55,275.57,68.11,281.68,68.11ZM288,77.62c-.18-4.71-3.05-7-6.42-7-3.77,0-7,2.47-7.77,7Z" />
    <path fill="#b6869d"
      d="M112.81,0a29,29,0,0,0-5.64,16.4c0,6.54,2.53,12.15,3.62,14.54,3.29,7.24,7.82,11.69,7.31,17.83a11.47,11.47,0,0,1-.84,3.53c-1.57,3.73-4.76,5.39-6,6.31-5.46,4.15-3.09,14.83-1.93,21.1.87,4.71,1.67,4.87,3.19,12.36,1.2,5.87,1.61,10.19,1.69,10.18a100.31,100.31,0,0,0-2.36-22.7A58.67,58.67,0,0,1,111,67.77a13.46,13.46,0,0,1,1.93-7.56c.76-1.17,1-1,2.36-2.61s4.46-5.23,4.62-9.67a12.14,12.14,0,0,0-.42-3.36c-1-4.48-3.12-7-4.88-9.84a38.48,38.48,0,0,1-4.79-12.11,34.31,34.31,0,0,1-.51-12.45A31.18,31.18,0,0,1,112.81,0Z" />
    <path fill="#b6869d"
      d="M117,2.94c-.1,3.74,0,6.79,1.07,9,2.12,4.26,2.73,3.86,4.08,7.74A32,32,0,0,1,124,28.25c.24,2.42.1,3.58.42,4.46,1.07,3,2.89,4.42,3.29,6.91.35,2.18-1,3.56-2.11,6.08-1.47,3.21-1.46,5.69-1.43,11.56,0,5.27.5,6.06.46,9.8,0,4.79-1.46,10.56-2.36,14.17-1,4-1.3,4.92-4,11.39,0,0-1.73,4.83-4.33,13.92a20.63,20.63,0,0,0-1.09,7.48,19.44,19.44,0,0,0,1.85,7,32.07,32.07,0,0,1-.33-5.08,22,22,0,0,1,1.17-7.2c1.62-5.75,3.09-10.93,4-13.07,3.51-8.81,6.75-17,7.63-26.4.53-5.68-1.24-7.45-1.41-14.85a15.9,15.9,0,0,1,.76-6c1.28-3.63,3.16-4.09,3.53-6.56.45-3-2.62-4.41-3.83-9.21-1.29-5.17.48-5.63-1.22-11.73-.86-3.1-3.12-4.55-5.25-9.46C118,7.66,117.72,4.89,117,2.94Z" />
    <path fill="#b6869d"
      d="M116.17,19.42c-2.47.41-4,3.21-4.29,5.39-.54,4.07,3,8.37,5.47,8.15,1.42-.12,3-1.77,2.77-2.69-.1-.41-.59-.77-.84-.67s0,.95-.42,1.51a2.16,2.16,0,0,1-2.19.51c-2.22-.68-2.35-5.32-2.35-5.55,0-1.42.22-4.77,1.68-5.13s3.27,2.35,4,3.95.73,3.8,1,6.73c.11,1.39.15,1.95.5,2.43.75,1,2.71.7,2.73.68a3.39,3.39,0,0,1-2-2.28c-.65-2.24.62-3.14,0-7.06-.15-1-.53-3.58-2.6-5A4.88,4.88,0,0,0,116.17,19.42Z" />
    <path fill="#606c50"
      d="M81.47,67.94h0c0-.12,0-.25.07-.37a38.07,38.07,0,0,1,31.3-30.21L110.77,34A40.69,40.69,0,0,0,78.35,66.5c0,.25,0,.17-.07.42A4.18,4.18,0,0,1,81.47,67.94Z" />
    <path fill="#606c50"
      d="M87.64,98.73a7.48,7.48,0,0,1-1.1,1.45c.23.29.28.35.52.63a40.58,40.58,0,0,0,24.28,14.09,1.69,1.69,0,0,0,0-.23v-.25A37.63,37.63,0,0,1,88,99.28C87.83,99,87.83,99,87.64,98.73Z" />
    <path fill="#606c50"
      d="M152.14,58.21a8.55,8.55,0,0,1,4.16,1.46,15.8,15.8,0,0,0-.85-2,42.75,42.75,0,0,0-21-21.34c-1.42-.65-4.46-1.67-5.94-2.15.11,1.3,1.55,2.43,2.25,4.58A37.46,37.46,0,0,1,151.42,56.8C151.79,57.5,151.81,57.48,152.14,58.21Z" />
    <path fill="#606c50"
      d="M152.61,92.56a1.76,1.76,0,0,0-.09.2,37.71,37.71,0,0,1-33.63,22.34c-1.13,0-2.25,0-3.37-.09,0,.15,0,.29-.07.42,1.12.07,2.25.1,3.4.07a40.88,40.88,0,0,0,36-23,3.13,3.13,0,0,0,.15-.32A13.68,13.68,0,0,1,152.61,92.56Z" />
  </symbol>
  <!-- ################################################################### -->
  <!-- General icons -->
  <!-- ################################################################### -->
  <!-- ###### smart phone -->
  <symbol id="smart_phone" viewBox="0 0 512 512">
    <g>
      <g>
        <path
          d="M112.5,0v512h287V0H112.5z M369.5,482h-227v-56h227V482z M369.5,396h-227V100h227V396z M369.5,70h-227V30h227V70z"
          fill="currentColor" />
      </g>
    </g>
    <g>
      <g>
        <rect x="238.67" y="439.5" width="29.667" height="29.667" fill="currentColor" />
      </g>
    </g>
  </symbol>
  <!-- ########old-phone -->
  <symbol id="old_phone" viewBox="0 0 512 512">
    <g>
      <g>
        <rect x="384.235" y="185.379" width="127.765" height="43.637" fill="currentColor" />
      </g>
    </g>
    <g>
      <g>
        <rect y="185.379" width="127.765" height="43.637" fill="currentColor" />
      </g>
    </g>
    <g>
      <g>
        <path d="M510.918,155.407c-5.455-22.927-30.717-45.641-70.926-63.328C390.846,70.462,325.503,58.556,256,58.556
			c-70.32,0-136.198,12.144-185.497,34.195C31.13,110.362,6.52,132.77,1.129,155.407h126.638v-11.651l11.658-2.655
			c36.31-8.268,75.247-12.462,115.73-12.462c41.182,0,80.708,4.326,117.479,12.858l11.598,2.691v11.218H510.918z"
          fill="currentColor" />
      </g>
    </g>
    <g>
      <g>
        <path d="M256,269.996c-29.099,0-52.771,23.674-52.771,52.772c0,29.099,23.673,52.771,52.771,52.771s52.771-23.673,52.771-52.771
			S285.099,269.996,256,269.996z" fill="currentColor" />
      </g>
    </g>
    <g>
      <g>
        <path d="M448.538,258.987h-94.277v-90.816c-31.24-6.347-64.519-9.56-99.107-9.56c-33.927,0-66.637,3.102-97.416,9.228v91.148
			H63.462L38.041,298.73v154.714h435.918V298.73L448.538,258.987z M256,405.512c-45.624,0-82.742-37.118-82.742-82.742
			s37.118-82.743,82.742-82.743s82.742,37.119,82.742,82.743C338.742,368.393,301.624,405.512,256,405.512z"
          fill="currentColor" />
      </g>
    </g>
  </symbol>
  <!-- ###### telephone -->
  <symbol id="telephone" viewBox="0 0 512 512">
    <g>
      <g>
        <path d="M140.332,140.332c-19.442,19.44-27.296,47.068-21.007,73.905l29.219-6.846c-3.903-16.654,0.96-33.789,13.008-45.838
			c12.047-12.047,29.182-16.909,45.836-13.006l6.846-29.219C187.4,113.038,159.773,120.891,140.332,140.332z"
          fill="currentColor" />
      </g>
    </g>
    <g>
      <g>
        <path d="M98.427,98.426c-34.482,34.481-48.409,83.49-37.253,131.098l29.219-6.846c-8.769-37.426,2.166-75.944,29.255-103.031
			c27.086-27.086,65.601-38.022,103.028-29.252l6.846-29.219C181.914,50.02,132.907,63.946,98.427,98.426z"
          fill="currentColor" />
      </g>
    </g>
    <g>
      <g>
        <path d="M142.371,6.902c-32.25,8.837-61.86,26.071-85.627,49.839C32.974,80.51,15.74,110.118,6.903,142.369
			c-8.559,31.227-9.17,64.427-1.77,96.01l29.219-6.846C21.279,175.75,37.585,118.34,77.963,77.961
			c40.376-40.376,97.785-56.678,153.569-43.607l6.846-29.219C206.796-2.265,173.597-1.655,142.371,6.902z"
          fill="currentColor" />
      </g>
    </g>
    <g>
      <g>
        <path d="M488.723,73.189L420.471,4.938L284.488,140.922l66.262,66.263c-17.989,26.975-39.612,53.146-64.401,77.935
			c-25.27,25.27-51.938,47.227-79.408,65.389l-66.02-66.02L4.937,420.473l69.831,69.831l0.427,0.411
			c28.577,26.406,76.81,28.306,135.816,5.353c55.328-21.524,115.255-62.833,168.739-116.317
			c54.123-54.123,95.671-114.673,116.99-170.498c10.191-26.685,15.262-51.087,15.262-72.419
			C512.003,110.399,504.213,88.678,488.723,73.189z M326.927,140.922l93.544-93.544l29.012,29.013l-93.544,93.544L326.927,140.922z
			 M47.376,420.473l93.544-93.543l29.013,29.012L76.39,449.484L47.376,420.473z M468.703,198.546
			c-19.845,51.964-58.973,108.781-110.175,159.983c-50.608,50.607-106.861,89.52-158.4,109.568
			c-45.33,17.635-82.367,18.467-102.372,2.458l93.395-93.395l11.544,11.544l10.117-6.306c32.936-20.53,64.816-46.119,94.754-76.059
			c29.43-29.43,54.689-60.785,75.075-93.195l6.374-10.133l-11.858-11.858l93.356-93.356
			C486.326,117.586,485.759,153.887,468.703,198.546z" fill="currentColor" />
      </g>
    </g>
  </symbol>
  <!-- ####### comment -->
  <symbol id="comment" viewBox="0 0 512 512">
    <g>
      <g>
        <polygon points="73.159,481.76 153.28,448.642 153.39,448.532 63.458,358.61 63.358,358.71 12.498,481.76 0.17,481.76 
			0.17,511.59 0,512 0.649,511.73 436.744,511.73 436.744,481.76" fill="currentColor" />
      </g>
    </g>
    <g>
      <g>
        <polygon points="283.803,138.265 84.657,337.42 174.58,427.343 373.735,228.197" fill="currentColor" />
      </g>
    </g>
    <g>
      <g>
        <polygon points="333.804,88.264 304.992,117.076 394.924,206.998 423.726,178.196" fill="currentColor" />
      </g>
    </g>
    <g>
      <g>
        <polygon points="422.078,0 354.993,67.075 444.925,157.007 512,89.922" fill="currentColor" />
      </g>
    </g>
    <g>
      <g>
        <rect x="270.905" y="412.357" width="160.843" height="29.971" fill="currentColor" />
      </g>
    </g>
  </symbol>
  <!-- ###### user-boy -->
  <symbol id="data_boy" viewBox="0 0 64 64">
    <g>
      <path
        d="M36.422,44.357l-.651-.154A1,1,0,0,1,35,43.23V39.782a20.751,20.751,0,0,1-6,0V43.23a1,1,0,0,1-.771.973l-.651.154A5.989,5.989,0,0,0,32,46,5.989,5.989,0,0,0,36.422,44.357Z"
        fill="currentColor" />
      <path
        d="M48.687,24.031a45.77,45.77,0,0,1-11.5-1.675A41.66,41.66,0,0,1,24.425,16.57,10.044,10.044,0,0,1,20.5,20.326a10.9,10.9,0,0,1-5.479,1.579C15.007,22.349,15,22.761,15,23a13.244,13.244,0,0,0,1.061,5.218c.1.232.2.446.3.661C19.045,34.418,25.184,38,32,38s12.955-3.582,15.64-9.126l.139-.307c.064-.129.11-.217.147-.314a13.317,13.317,0,0,0,1.023-4.228C48.86,24.026,48.776,24.031,48.687,24.031Z"
        fill="currentColor" />
      <path
        d="M19.5,18.6A7.22,7.22,0,0,0,23.04,14.72a1,1,0,0,1,1.586-.5,37.747,37.747,0,0,0,13.084,6.2A41.409,41.409,0,0,0,49.93,22c.591-.03,1.46-.082,2.363-.157-.307-.086-.617-.175-.926-.265h0A25.325,25.325,0,0,1,46.5,19.755c-4.218-2.429-7.535-5.435-8.655-7.843a1,1,0,1,1,1.814-.843c.94,2.022,4.018,4.752,7.842,6.954a16.686,16.686,0,0,0,2.879,1.158C48.19,10.548,40.41,4,32,4A18.872,18.872,0,0,0,13.339,19.508C14.471,20.206,16.926,20.085,19.5,18.6Z"
        fill="currentColor" />
      <path
        d="M12.25,21.2c-1.535.375-2.477,2.3-2.105,4.4.332,1.92,1.692,3.4,3.166,3.445a1.792,1.792,0,0,0,.478-.026,2.305,2.305,0,0,0,.391-.123A15.225,15.225,0,0,1,13,23c0-.313.01-.863.032-1.431A4.176,4.176,0,0,1,12.25,21.2Z"
        fill="currentColor" />
      <path
        d="M53.9,23.694c-.991.114-2.072.2-2.944.252a15.183,15.183,0,0,1-.989,4.554,2.293,2.293,0,0,0,.253.076,1.634,1.634,0,0,0,.416.028c1.53-.049,2.89-1.528,3.221-3.444A5.108,5.108,0,0,0,53.9,23.694Z"
        fill="currentColor" />
      <path
        d="M51,51.75a4.984,4.984,0,0,0-3.851-4.867l-5.66-1.333C40.178,48.8,36.437,51,32,51s-8.178-2.2-9.489-5.45l-5.662,1.334A4.982,4.982,0,0,0,13,51.75V60H51Z"
        fill="currentColor" />
      <path
        d="M32,49c3.478,0,6.405-1.568,7.516-3.915L38.5,44.847C37.469,46.717,34.918,48,32,48s-5.469-1.282-6.5-3.153l-1.014.238C25.6,47.432,28.522,49,32,49Z"
        fill="currentColor" />
    </g>
  </symbol>
  <!-- ######## location -->
  <symbol id="location" viewBox="0 0 512 512">
    <g>
      <g>
        <path d="M255.998,0C155.086,0,72.988,82.098,72.988,183.01c0,41.433,29.079,107.172,86.431,195.392
			c41.902,64.455,84.401,118.228,84.826,118.763l11.754,14.834l11.754-14.834c0.425-0.536,42.924-54.308,84.826-118.763
			c57.351-88.219,86.431-153.959,86.431-195.392C439.009,82.098,356.91,0,255.998,0z M255.997,463.408
			C204.369,395.8,102.98,249.337,102.98,183.01c0-84.374,68.644-153.018,153.018-153.018S409.017,98.636,409.017,183.01
			C409.017,249.303,307.626,395.787,255.997,463.408z" fill="currentColor" />
      </g>
    </g>
    <g>
      <g>
        <path d="M255.998,71.981c-58.984,0-106.971,47.987-106.971,106.971c0,58.984,47.987,106.971,106.971,106.971
			c58.984,0,106.971-47.987,106.971-106.971C362.97,119.968,314.983,71.981,255.998,71.981z M255.998,255.932
			c-42.447,0-76.979-34.533-76.979-76.979s34.533-76.979,76.979-76.979c42.447,0,76.979,34.533,76.979,76.979
			S298.445,255.932,255.998,255.932z" fill="currentColor" />
      </g>
    </g>
  </symbol>
  <!--  mail in contact-->
  <symbol id="mail" viewBox="0 0 512 512">
    <g>
      <g>
        <path d="M0,97.055v317.89h512V97.055H0z M453.88,127.055L256,277.345L58.12,127.055H453.88z M30,143.365l158.18,120.14L30,371.545
			V143.365z M63.56,384.945l149.81-102.31l42.63,32.38l42.63-32.38l149.81,102.31H63.56z M482,371.545l-158.18-108.04L482,143.365
			V371.545z" fill="currentColor" />
      </g>
    </g>
  </symbol>
  <!-- ###### mailbox in feedback form-->
  <symbol id="mailbox" viewBox="0 0 512 512">
    <g>
      <g>
        <polygon points="114,151.065 114,365.545 251.56,263.995" fill="currentColor" />
      </g>
    </g>
    <g>
      <g>
        <polygon points="350.53,283.625 313,314.435 275.47,283.625 130.38,390.745 495.62,390.745" fill="currentColor" />
      </g>
    </g>
    <g>
      <g>
        <polygon points="374.44,263.995 512,365.545 512,151.065" fill="currentColor" />
      </g>
    </g>
    <g>
      <g>
        <rect y="301.6" width="85.67" height="30" fill="currentColor" />
      </g>
    </g>
    <g>
      <g>
        <rect x="20" y="241.96" width="65.67" height="30" fill="currentColor" />
      </g>
    </g>
    <g>
      <g>
        <rect x="40" y="182.31" width="45.666" height="30" fill="currentColor" />
      </g>
    </g>
    <g>
      <g>
        <polygon points="124.97,121.255 313,275.625 501.03,121.255" fill="currentColor" />
      </g>
    </g>
  </symbol>
  <!-- ###### clock in contact-->
  <symbol id="clock" viewBox="0 0 512 512">
    <g>
      <g>
        <path
          d="M256,0C114.615,0,0,114.615,0,256s114.615,256,256,256s256-114.615,256-256S397.385,0,256,0z M272,479.2V432h-32v47.2    C129.072,471.15,40.85,382.928,32.8,272H80v-32H32.8C40.85,129.072,129.072,40.85,240,32.8V80h32V32.8    c110.928,8.05,199.15,96.272,207.2,207.2H432v32h47.2C471.15,382.928,382.928,471.15,272,479.2z"
          fill="currentColor" />
      </g>
    </g>
    <g>
      <g>
        <path d="M272,249.44V144h-32v112c-0.025,4.253,1.645,8.34,4.64,11.36l80,80l22.56-22.56L272,249.44z"
          fill="currentColor" />
      </g>
    </g>
  </symbol>
  <!-- icon phone in header -->
  <symbol id="phone-volume-icon" viewBox="0 0 0 0 512.001 512.001">
    <g>
      <path d="M462.491,468.206l-33.938,33.937c-6.062,6.031-23.812,9.844-24.343,9.844c-107.435,0.905-210.869-41.279-286.882-117.31
		C41.097,318.46-1.136,214.619,0.036,106.872c0-0.063,3.891-17.312,9.938-23.312l33.937-33.968
		c12.453-12.437,36.295-18.062,52.998-12.5l7.156,2.406c16.703,5.562,34.155,23.999,38.78,40.967l17.093,62.717
		c4.64,17-1.594,41.186-14.031,53.623l-22.687,22.687c22.25,82.467,86.919,147.121,169.339,169.402l22.687-22.688
		c12.438-12.438,36.687-18.656,53.687-14.031l62.718,17.125c16.937,4.594,35.374,22.03,40.968,38.748l2.375,7.156
		C480.552,431.926,474.928,455.769,462.491,468.206z M287.996,255.993h31.999c0-35.343-28.655-63.998-63.998-63.998v31.999
		C273.636,223.994,287.996,238.368,287.996,255.993z M415.992,255.993c0-88.373-71.623-159.996-159.995-159.996v32
		c70.591,0,127.996,57.436,127.996,127.996H415.992z M255.997,0v31.999c123.496,0,223.993,100.497,223.993,223.994h31.999
		C511.989,114.622,397.368,0,255.997,0z" fill="currentColor" />
    </g>
  </symbol>
  <!-- feedback icon  in header-->
  <symbol id="feedback-icon" viewBox="0 0 0 0 64 64">
    <g id="_x31_-Call" />
    <g id="_x32_-24_Hours_Call" />
    <g id="_x33_-Sending_Call" />
    <g id="_x34_-Incoming_Call" />
    <g id="_x35_-Talk_On_Phone" />
    <g id="_x36_-Block_Call" />
    <g id="_x37_-Hold_Call" />
    <g id="_x38_-Mute_Call" />
    <g id="_x39_-Phone_Book" />
    <g id="_x31_0-Add_Contact" />
    <g id="_x31_1-Delete_Contact" />
    <g id="_x31_2-Mail" />
    <g id="_x31_3-Message_Read" />
    <g id="_x31_4-Email">
      <g>
        <polygon
          points="55.5849609,49.3529663 55.5864868,49.3546143 56,49.6526489 56,26.5866089 38.4038086,36.9716187   "
          fill="currentColor" />
        <path
          d="M12.5499878,17.4702148h-0.4299927C9.8499756,17.4702148,8,19.3201904,8,21.59021v2.6699829l4.5499878,2.6799927    V17.4702148z"
          fill="currentColor" />
        <path
          d="M51.8800049,17.4702148h-0.4299927v9.4699707L56,24.2601929V21.59021    C56,19.3201904,54.1500244,17.4702148,51.8800049,17.4702148z"
          fill="currentColor" />
        <path
          d="M54.4150391,50.9760132L33.7539063,36.086853c-1.0488281-0.7558594-2.4589844-0.7558594-3.5078125,0L9.5844727,50.9760132    l-0.0002441,0.0001221L8,52.1177979v1.4719849c0,0.5522461,0.4477539,1,1,1h46c0.5527344,0,1-0.4477539,1-1v-1.4719238    l-1.5834351-1.1411743C54.4160767,50.9763184,54.4155273,50.9763794,54.4150391,50.9760132z"
          fill="currentColor" />
        <polygon points="14.5393677,44.9400024 25.5965576,36.9719849 8,26.586853 8,49.6523438 14.5385742,44.9403687   "
          fill="currentColor" />
        <path
          d="M27.7600098,18.6002197c-0.0800171-0.0400391-0.1900024-0.0599976-0.3300171-0.0599976    c-0.2799683,0-0.6699829,0.0799561-1.0800171,0.2799683c-0.8299561,0.4100342-1.4400024,1.2200317-1.539978,2.0700073    c-0.0900269,0.6900024,0.2700195,1.7999878,0.9899902,1.9000244c0.1699829,0.0199585,0.4400024,0.0199585,0.7900391-0.3099976    c0.8599854-0.8000488,1.3599854-2.6800537,1.3399658-3.6600342    C27.8699951,18.6502075,27.7999878,18.6101685,27.7600098,18.6002197z"
          fill="currentColor" />
        <path
          d="M29.0800171,34.4602051c1.75-1.2600098,4.0899658-1.2600098,5.8399658,0l1.710022,1.2299805l12.8200073-7.5599976    V13.4102173c0-0.5599976-0.4400024-1-1-1h-8.0700073v-2c0-0.5500488-0.4500122-1-1-1H15.5499878c-0.5499878,0-1,0.4499512-1,1    V28.130188l12.8200073,7.5599976L29.0800171,34.4602051z M40.5599976,17.5101929h4.2700195c0.5599976,0,1,0.4500122,1,1    c0,0.5599976-0.4400024,1-1,1h-4.2700195c-0.5499878,0-1-0.4400024-1-1    C39.5599976,17.9602051,40.0100098,17.5101929,40.5599976,17.5101929z M40.5599976,21.7702026h4.2700195    c0.5599976,0,1,0.4500122,1,1s-0.4400024,1-1,1h-4.2700195c-0.5499878,0-1-0.4500122-1-1    S40.0100098,21.7702026,40.5599976,21.7702026z M23.0700073,27.130188    c-1.7299805-0.9799805-2.9799805-2.5800171-3.5100098-4.4899902c-0.5200195-1.9199829-0.2799683-3.9199829,0.7000122-5.6500244    c0.9799805-1.7299805,2.5700073-2.9699707,4.4899902-3.5c3.9099731-1.0899658,7.9699707,1.1800537,9.1099854,5.0500488    c0.0200195,0.039978,0.0300293,0.0799561,0.0400391,0.1300049c0.0099487,0.0199585,0.0199585,0.039978,0.0199585,0.0599976    c0.0100098,0.0299683,0.0100098,0.0499878,0.0100098,0.0799561c0.3599854,1.8200073-0.2000122,3.6300049-1.4899902,4.710022    c-0.6300049,0.5200195-1.4099731,0.7299805-2.1300049,0.5700073c-0.6500244-0.1400146-1.1900024-0.5599976-1.5299683-1.1799927    c-0.2400513,0.3899536-0.5100098,0.7399902-0.8300171,1.0299683c-0.6000366,0.5700073-1.2999878,0.8599854-2.0300293,0.8599854    c-0.1300049,0-0.2600098-0.0099487-0.3899536-0.0299683c-1.8900146-0.2600098-2.9200439-2.3400269-2.710022-4.1199951    c0.1900024-1.5300293,1.210022-2.9199829,2.6599731-3.6300049c0.4200439-0.2000122,1.8800049-0.8200073,3.1199951-0.2399902    c0.460022,0.2099609,1.0400391,0.6599731,1.2900391,1.6099854c0.0100098,0.039978,0.0199585,0.0700073,0.0199585,0.1099854    c0.0100098,0.0400391,0.0100098,0.0800171,0.0100098,0.1099854c0.0499878,0.7600098,0.1100464,1.1600342,0.2600098,1.9700317    l0.0300293,0.1699829c0.0799561,0.4299927,0.1499634,0.8300171,0.289978,1.1400146    c0.0499878,0.0999756,0.1300049,0.2199707,0.2399902,0.25c0.1199951,0.0200195,0.2700195-0.0300293,0.4199829-0.1599731    c0.8600464-0.7200317,0.9800415-1.9000244,0.8099976-2.7700195c-0.7999878-2.8900146-3.789978-4.6000366-6.6899414-3.7999878    C23.8800049,15.8001709,22.7199707,16.7102051,22,17.9702148c-0.710022,1.2699585-0.9000244,2.7299805-0.5100098,4.1300049    c0.3900146,1.3999634,1.2999878,2.5700073,2.5599976,3.2799683c1.2700195,0.7200317,2.7300415,0.9000244,4.1300049,0.5200195    c0.3800049-0.1099854,0.75-0.2600098,1.1000366-0.4400024c0.4799805-0.25,1.0899658-0.0700073,1.3499756,0.4199829    c0.25,0.4899902,0.0700073,1.0900269-0.4199829,1.3500366c-0.4800415,0.25-0.9800415,0.4499512-1.4900513,0.5899658    c-0.6599731,0.1900024-1.3299561,0.2800293-2,0.2800293C25.4500122,28.1002197,24.2000122,27.7702026,23.0700073,27.130188z"
          fill="#b6869d" />
      </g>
    </g>
    <g id="_x31_5-Send_Mail" />
    <g id="_x31_6-Important_Mail" />
    <g id="_x31_7-Mail_Chain" />
    <g id="_x31_8-Messaging" />
    <g id="_x31_9-Sending" />
    <g id="_x32_0-Chat" />
    <g id="_x32_1-Mail_Attachment" />
    <g id="_x32_2-Mobile_Link" />
    <g id="_x32_3-Smartphone" />
    <g id="_x32_4-Social_Media" />
    <g id="_x32_5-Support" />
    <g id="_x32_6-Links" />
    <g id="_x32_7-Phone" />
    <g id="_x32_8-Phone-2" />
    <g id="_x32_9-Map" />
    <g id="_x33_0-Location" />
    <g id="_x33_1-Write" />
    <g id="_x33_2-World" />
    <g id="_x33_3-Home" />
    <g id="_x33_4-Calendar" />
    <g id="_x33_5-Website" />
    <g id="_x33_6-Info" />
    <g id="_x33_7-Bull_Horn" />
    <g id="_x33_8-Profile" />
    <g id="_x33_9-Quote__x26__Answer" />
    <g id="_x34_0-Notification" />
    <g id="_x34_1-Share" />
    <g id="_x34_2-Time" />
  </symbol>
  <!-- ################################################################### -->
  <!-- Feedback form -->
  <!-- ################################################################### -->
  <!-- button close cross -->
  <symbol id="cross-close-icon" viewBox="0 0 0 0 20 20">
    <path
      d="M2.93 17.07A10 10 0 1 1 17.07 2.93 10 10 0 0 1 2.93 17.07zm1.41-1.41A8 8 0 1 0 15.66 4.34 8 8 0 0 0 4.34 15.66zm9.9-8.49L11.41 10l2.83 2.83-1.41 1.41L10 11.41l-2.83 2.83-1.41-1.41L8.59 10 5.76 7.17l1.41-1.41L10 8.59l2.83-2.83 1.41 1.41z"
      fill="currentColor" />
  </symbol>
  <!-- error-sending-message -->
  <symbol id="error_send" viewBox="0 0 850.4 850.4">
    <g>
      <g>
        <rect y="0" fill="#E54242" width="850.4" height="850.4" />
      </g>
    </g>
    <g>
      <g>
        <g>
          <path fill="#CDEEF4" d="M623.2,252.3L445.6,101.7c-11.8-10-29-10-40.7,0L227.2,252.3l198,129.2L623.2,252.3z" />
        </g>
        <g>
          <path fill="#306C7E" d="M425.2,386.8c-1,0-2-0.3-2.9-0.9l-198-129.2c-1.4-0.9-2.3-2.4-2.4-4.1c-0.1-1.7,0.6-3.3,1.9-4.4L401.4,97.7
				c13.8-11.7,33.8-11.7,47.6,0l177.6,150.5c1.3,1.1,2,2.7,1.9,4.4c-0.1,1.7-1,3.2-2.4,4.1l-198,129.2
				C427.2,386.5,426.2,386.8,425.2,386.8z M236.1,251.7l189.1,123.4l189.1-123.4L442.1,105.8c-9.8-8.3-24.1-8.3-33.9,0L236.1,251.7z
				" />
        </g>
      </g>
      <g>
        <g>
          <polygon fill="#FFFFFF" points="560.4,411.9 290,411.9 290,180.7 350.6,121 560.4,121 			" />
        </g>
        <g>
          <path fill="#306C7E"
            d="M560.4,417.2H290c-2.9,0-5.3-2.4-5.3-5.3V180.7c0-1.4,0.6-2.8,1.6-3.8l60.6-59.7c1-1,2.3-1.5,3.7-1.5h209.8
				c2.9,0,5.3,2.4,5.3,5.3v290.9C565.7,414.8,563.3,417.2,560.4,417.2z M295.3,406.6h259.8V126.3H352.8L295.3,183V406.6z" />
        </g>
      </g>
      <g>
        <g>
          <g>
            <rect x="317.4" y="284.1" fill="#CDEEF4" width="99" height="97.4" />
          </g>
        </g>
        <g>
          <g>
            <rect x="434" y="284.1" fill="#CDEEF4" width="99" height="16" />
          </g>
        </g>
        <g>
          <g>
            <rect x="434" y="311.3" fill="#CDEEF4" width="49.5" height="16" />
          </g>
        </g>
        <g>
          <g>
            <rect x="434" y="338.6" fill="#CDEEF4" width="99" height="16" />
          </g>
        </g>
        <g>
          <g>
            <rect x="434" y="365.5" fill="#CDEEF4" width="49.5" height="16" />
          </g>
        </g>
      </g>
      <g>
        <g>
          <g>
            <polygon fill="#FFFFFF" points="623.2,507.6 227.2,507.6 227.2,252.3 425.2,379.9 623.2,252.3 				" />
          </g>
          <g>
            <path fill="#306C7E" d="M623.2,512.9H227.2c-2.9,0-5.3-2.4-5.3-5.3V252.3c0-1.9,1.1-3.7,2.8-4.7c1.7-0.9,3.8-0.9,5.4,0.2
					l195.1,125.8l195.1-125.8c1.6-1.1,3.7-1.1,5.4-0.2c1.7,0.9,2.8,2.7,2.8,4.7v255.3C628.5,510.5,626.1,512.9,623.2,512.9z
					 M232.5,502.3h385.3V262L428.1,384.4c-1.8,1.1-4,1.1-5.8,0L232.5,262V502.3z" />
          </g>
        </g>
        <g>
          <g>
            <g>
              <polygon fill="#FF849E" points="239.8,313.8 252,320.1 252,287.4 239.8,281.1 					" />
            </g>
          </g>
          <g>
            <g>
              <polygon fill="#4BC7EF" points="239.8,358.1 252,364.4 252,331.7 239.8,325.4 					" />
            </g>
          </g>
          <g>
            <g>
              <polygon fill="#FF849E" points="239.8,402.3 252,408.6 252,375.9 239.8,369.6 					" />
            </g>
          </g>
          <g>
            <g>
              <polygon fill="#FF849E" points="239.8,490.8 252,497.1 252,464.4 239.8,458.1 					" />
            </g>
          </g>
          <g>
            <g>
              <polygon fill="#4BC7EF" points="239.8,446.6 252,452.9 252,420.2 239.8,413.9 					" />
            </g>
          </g>
        </g>
        <g>
          <g>
            <g>
              <polygon fill="#FF849E" points="607.4,313.8 595.2,320.1 595.2,287.4 607.4,281.1 					" />
            </g>
          </g>
          <g>
            <g>
              <polygon fill="#4BC7EF" points="607.4,358.1 595.2,364.4 595.2,331.7 607.4,325.4 					" />
            </g>
          </g>
          <g>
            <g>
              <polygon fill="#FF849E" points="607.4,402.3 595.2,408.6 595.2,375.9 607.4,369.6 					" />
            </g>
          </g>
          <g>
            <g>
              <polygon fill="#FF849E" points="607.4,490.8 595.2,497.1 595.2,464.4 607.4,458.1 					" />
            </g>
          </g>
          <g>
            <g>
              <polygon fill="#4BC7EF" points="607.4,446.6 595.2,452.9 595.2,420.2 607.4,413.9 					" />
            </g>
          </g>
        </g>
        <g>
          <g>
            <path fill="#FFFFFF" d="M623.2,507.6L445.6,357.1c-11.8-10-29-10-40.7,0L227.2,507.6H623.2z" />
          </g>
          <g>
            <path fill="#306C7E" d="M623.2,512.9H227.2c-2.2,0-4.2-1.4-5-3.5c-0.8-2.1-0.1-4.4,1.6-5.9L401.4,353c13.8-11.7,33.8-11.7,47.6,0
					l177.6,150.5c1.7,1.4,2.3,3.8,1.6,5.9C627.4,511.5,625.4,512.9,623.2,512.9z M241.7,502.3h367L442.1,361.1
					c-9.8-8.3-24.1-8.3-33.9,0L241.7,502.3z" />
          </g>
        </g>
      </g>
      <g>
        <g>
          <polygon fill="#CDEEF4" points="350.6,121 290.9,180.7 350.6,180.7 			" />
        </g>
        <g>
          <path fill="#306C7E" d="M350.6,186.1h-59.7c-2.1,0-4.1-1.3-4.9-3.3c-0.8-2-0.4-4.3,1.2-5.8l59.7-59.7c1.5-1.5,3.8-2,5.8-1.2
				c2,0.8,3.3,2.8,3.3,4.9v59.7C355.9,183.7,353.6,186.1,350.6,186.1z M303.7,175.4h41.6v-41.6L303.7,175.4z" />
        </g>
      </g>
      <g>
        <g>
          <g>
            <g>
              <g>
                <path fill="#306C7E" d="M477.6,212.7c-1.1,0-2.2-0.4-3.1-1.3l-27.1-27.1c-1.7-1.7-1.7-4.4,0-6.1c1.7-1.7,4.4-1.7,6.1,0l27.1,27.1
							c1.7,1.7,1.7,4.4,0,6.1C479.8,212.3,478.7,212.7,477.6,212.7z" />
              </g>
            </g>
          </g>
          <g>
            <g>
              <g>
                <path fill="#306C7E" d="M450.5,212.7c-1.1,0-2.2-0.4-3.1-1.3c-1.7-1.7-1.7-4.4,0-6.1l27.1-27.1c1.7-1.7,4.4-1.7,6.1,0
							c1.7,1.7,1.7,4.4,0,6.1l-27.1,27.1C452.7,212.3,451.6,212.7,450.5,212.7z" />
              </g>
            </g>
          </g>
        </g>
        <g>
          <g>
            <g>
              <g>
                <path fill="#306C7E" d="M448.4,263.5c-1.1,0-2.2-0.4-3.1-1.3l-9.3-9.3l-9.3,9.3c-1.7,1.7-4.4,1.7-6.1,0l-9.3-9.3l-9.3,9.3
							c-1.7,1.7-4.4,1.7-6.1,0l-8.1-8.1l-8.1,8.1c-1.7,1.7-4.4,1.7-6.1,0c-1.7-1.7-1.7-4.4,0-6.1l11.1-11.1c1.7-1.7,4.4-1.7,6.1,0
							l8.1,8.1l9.3-9.3c1.7-1.7,4.4-1.7,6.1,0l9.3,9.3l9.3-9.3c1.7-1.7,4.4-1.7,6.1,0l9.3,9.3l9.3-9.3c0.8-0.8,2-1.3,3.1-1.3
							c1.2,0,2.3,0.5,3.1,1.3l12.2,12.4c1.7,1.7,1.7,4.5,0,6.1c-1.7,1.7-4.5,1.7-6.1,0l-9.1-9.3l-9.3,9.3
							C450.7,263.1,449.5,263.5,448.4,263.5z" />
              </g>
            </g>
          </g>
        </g>
        <g>
          <g>
            <g>
              <g>
                <path fill="#306C7E" d="M399.9,212.7c-1.1,0-2.2-0.4-3.1-1.3l-27.1-27.1c-1.7-1.7-1.7-4.4,0-6.1c1.7-1.7,4.4-1.7,6.1,0l27.1,27.1
							c1.7,1.7,1.7,4.4,0,6.1C402.1,212.3,401,212.7,399.9,212.7z" />
              </g>
            </g>
          </g>
          <g>
            <g>
              <g>
                <path fill="#306C7E" d="M372.8,212.7c-1.1,0-2.2-0.4-3.1-1.3c-1.7-1.7-1.7-4.4,0-6.1l27.1-27.1c1.7-1.7,4.4-1.7,6.1,0
							c1.7,1.7,1.7,4.4,0,6.1l-27.1,27.1C375.1,212.3,374,212.7,372.8,212.7z" />
              </g>
            </g>
          </g>
        </g>
      </g>
    </g>
    <g>
      <path fill="#FFFFFF" d="M217.7,760.5v-35.8h26.5v6.1h-19.3v7.9h18v6h-18v9.7h20v6H217.7z" />
      <path fill="#FFFFFF" d="M251.1,760.5v-35.8h15.2c3.8,0,6.6,0.3,8.3,1c1.7,0.6,3.1,1.8,4.2,3.4c1,1.6,1.6,3.5,1.6,5.6
		c0,2.7-0.8,4.9-2.4,6.7c-1.6,1.7-3.9,2.9-7.1,3.3c1.6,0.9,2.9,1.9,3.9,3c1,1.1,2.4,3,4.1,5.8l4.4,7h-8.6l-5.2-7.8
		c-1.9-2.8-3.1-4.5-3.8-5.3c-0.7-0.7-1.4-1.2-2.2-1.5c-0.8-0.3-2-0.4-3.6-0.4h-1.5v14.9H251.1z M258.3,739.9h5.3
		c3.5,0,5.6-0.1,6.5-0.4c0.9-0.3,1.5-0.8,2-1.5c0.5-0.7,0.7-1.6,0.7-2.7c0-1.2-0.3-2.2-1-2.9c-0.6-0.7-1.5-1.2-2.7-1.4
		c-0.6-0.1-2.3-0.1-5.3-0.1h-5.6V739.9z" />
      <path fill="#FFFFFF" d="M287.2,760.5v-35.8h15.2c3.8,0,6.6,0.3,8.3,1c1.7,0.6,3.1,1.8,4.2,3.4c1,1.6,1.6,3.5,1.6,5.6
		c0,2.7-0.8,4.9-2.4,6.7c-1.6,1.7-3.9,2.9-7.1,3.3c1.6,0.9,2.9,1.9,3.9,3c1,1.1,2.4,3,4.1,5.8l4.4,7h-8.6l-5.2-7.8
		c-1.9-2.8-3.1-4.5-3.8-5.3c-0.7-0.7-1.4-1.2-2.2-1.5c-0.8-0.3-2-0.4-3.6-0.4h-1.5v14.9H287.2z M294.4,739.9h5.3
		c3.5,0,5.6-0.1,6.5-0.4c0.9-0.3,1.5-0.8,2-1.5c0.5-0.7,0.7-1.6,0.7-2.7c0-1.2-0.3-2.2-1-2.9c-0.6-0.7-1.5-1.2-2.7-1.4
		c-0.6-0.1-2.3-0.1-5.3-0.1h-5.6V739.9z" />
      <path fill="#FFFFFF"
        d="M321.8,742.9c0-3.6,0.5-6.7,1.6-9.2c0.8-1.8,1.9-3.5,3.3-4.9c1.4-1.4,3-2.5,4.6-3.2c2.2-0.9,4.8-1.4,7.7-1.4
		c5.3,0,9.5,1.6,12.7,4.9c3.2,3.3,4.7,7.8,4.7,13.6c0,5.8-1.6,10.3-4.7,13.6c-3.1,3.3-7.3,4.9-12.6,4.9c-5.3,0-9.6-1.6-12.7-4.9
		C323.4,753,321.8,748.6,321.8,742.9z M329.2,742.6c0,4.1,0.9,7.1,2.8,9.2c1.9,2.1,4.2,3.1,7.1,3.1c2.9,0,5.2-1,7.1-3.1
		c1.8-2.1,2.8-5.2,2.8-9.3c0-4.1-0.9-7.2-2.7-9.2c-1.8-2-4.2-3-7.2-3c-3,0-5.4,1-7.2,3.1C330.2,735.4,329.2,738.5,329.2,742.6z" />
      <path fill="#FFFFFF" d="M362.2,760.5v-35.8h15.2c3.8,0,6.6,0.3,8.3,1c1.7,0.6,3.1,1.8,4.2,3.4c1,1.6,1.6,3.5,1.6,5.6
		c0,2.7-0.8,4.9-2.4,6.7c-1.6,1.7-3.9,2.9-7.1,3.3c1.6,0.9,2.9,1.9,3.9,3c1,1.1,2.4,3,4.1,5.8l4.4,7h-8.6l-5.2-7.8
		c-1.9-2.8-3.1-4.5-3.8-5.3c-0.7-0.7-1.4-1.2-2.2-1.5c-0.8-0.3-2-0.4-3.6-0.4h-1.5v14.9H362.2z M369.4,739.9h5.3
		c3.5,0,5.6-0.1,6.5-0.4c0.9-0.3,1.5-0.8,2-1.5c0.5-0.7,0.7-1.6,0.7-2.7c0-1.2-0.3-2.2-1-2.9c-0.6-0.7-1.5-1.2-2.7-1.4
		c-0.6-0.1-2.3-0.1-5.3-0.1h-5.6V739.9z" />
      <path fill="#FFFFFF"
        d="M410.3,748.9l7-0.7c0.4,2.4,1.3,4.1,2.6,5.2c1.3,1.1,3,1.7,5.2,1.7c2.3,0,4.1-0.5,5.3-1.5
		c1.2-1,1.8-2.1,1.8-3.5c0-0.8-0.2-1.6-0.7-2.2c-0.5-0.6-1.4-1.1-2.6-1.6c-0.8-0.3-2.8-0.8-5.8-1.6c-3.9-1-6.6-2.1-8.2-3.5
		c-2.2-2-3.3-4.4-3.3-7.2c0-1.8,0.5-3.5,1.5-5.1c1-1.6,2.5-2.8,4.5-3.6c1.9-0.8,4.3-1.2,7-1.2c4.5,0,7.9,1,10.1,3
		c2.3,2,3.5,4.6,3.6,7.9l-7.2,0.3c-0.3-1.8-1-3.2-2-4c-1-0.8-2.5-1.2-4.6-1.2c-2.1,0-3.7,0.4-4.9,1.3c-0.8,0.6-1.1,1.3-1.1,2.2
		c0,0.8,0.4,1.6,1.1,2.2c0.9,0.8,3.1,1.6,6.6,2.4c3.5,0.8,6.1,1.7,7.8,2.6c1.7,0.9,3,2.1,4,3.6c1,1.5,1.4,3.4,1.4,5.7
		c0,2.1-0.6,4-1.7,5.8c-1.1,1.8-2.8,3.1-4.8,4c-2.1,0.9-4.7,1.3-7.8,1.3c-4.5,0-8-1-10.4-3.1C412.2,756,410.8,752.9,410.3,748.9z" />
      <path fill="#FFFFFF" d="M445.5,760.5v-35.8H472v6.1h-19.3v7.9h18v6h-18v9.7h20v6H445.5z" />
      <path fill="#FFFFFF" d="M478.9,760.5v-35.8h7l14.6,23.9v-23.9h6.7v35.8h-7.3l-14.4-23.3v23.3H478.9z" />
      <path fill="#FFFFFF"
        d="M514.9,724.8h13.2c3,0,5.2,0.2,6.8,0.7c2.1,0.6,3.9,1.7,5.4,3.3c1.5,1.6,2.6,3.5,3.4,5.8
		c0.8,2.3,1.2,5.1,1.2,8.5c0,2.9-0.4,5.5-1.1,7.6c-0.9,2.6-2.2,4.7-3.8,6.3c-1.3,1.2-2.9,2.2-5.1,2.9c-1.6,0.5-3.7,0.8-6.4,0.8
		h-13.6V724.8z M522.2,730.8v23.7h5.4c2,0,3.5-0.1,4.4-0.3c1.2-0.3,2.1-0.8,2.9-1.5c0.8-0.7,1.4-1.9,1.9-3.5
		c0.5-1.6,0.7-3.8,0.7-6.6c0-2.8-0.2-4.9-0.7-6.4c-0.5-1.5-1.2-2.6-2.1-3.5c-0.9-0.8-2-1.4-3.3-1.7c-1-0.2-3-0.3-5.9-0.3H522.2z" />
      <path fill="#FFFFFF" d="M550.9,760.5v-35.8h7.2v35.8H550.9z" />
      <path fill="#FFFFFF" d="M565,760.5v-35.8h7l14.6,23.9v-23.9h6.7v35.8h-7.3l-14.4-23.3v23.3H565z" />
      <path fill="#FFFFFF"
        d="M617.7,747.4v-6h15.6v14.3c-1.5,1.5-3.7,2.8-6.6,3.9c-2.9,1.1-5.8,1.7-8.7,1.7c-3.7,0-7-0.8-9.8-2.4
		c-2.8-1.6-4.9-3.8-6.3-6.7c-1.4-2.9-2.1-6.1-2.1-9.5c0-3.7,0.8-7,2.3-9.9c1.6-2.9,3.8-5.1,6.9-6.7c2.3-1.2,5.2-1.8,8.6-1.8
		c4.4,0,7.9,0.9,10.4,2.8c2.5,1.9,4.1,4.4,4.8,7.7l-7.2,1.3c-0.5-1.8-1.5-3.1-2.8-4.2c-1.4-1-3.1-1.5-5.2-1.5c-3.2,0-5.7,1-7.5,3
		c-1.9,2-2.8,5-2.8,8.9c0,4.2,0.9,7.4,2.8,9.6c1.9,2.1,4.4,3.2,7.4,3.2c1.5,0,3-0.3,4.6-0.9c1.5-0.6,2.8-1.3,3.9-2.2v-4.5H617.7z" />
    </g>
    <g>
      <g>
        <path fill="#FFFFFF" d="M405.9,424.8l38.7,38.7L405.9,424.8z" />
        <path fill="#E54242" d="M444.5,469.9c-1.7,0-3.3-0.6-4.6-1.9l-38.7-38.7c-2.5-2.5-2.5-6.7,0-9.2c2.5-2.5,6.7-2.5,9.2,0l38.7,38.7
			c2.5,2.5,2.5,6.7,0,9.2C447.9,469.3,446.2,469.9,444.5,469.9z" />
      </g>
      <g>
        <path fill="#FFFFFF" d="M444.5,424.8l-38.7,38.7L444.5,424.8z" />
        <path fill="#E54242" d="M405.9,469.9c-1.7,0-3.3-0.6-4.6-1.9c-2.5-2.5-2.5-6.7,0-9.2l38.7-38.7c2.5-2.5,6.7-2.5,9.2,0
			c2.5,2.5,2.5,6.7,0,9.2L410.5,468C409.2,469.3,407.5,469.9,405.9,469.9z" />
      </g>
    </g>
    <g>
    </g>
  </symbol>

  <!-- ################################################################### -->
  <!-- social icons-->
  <!-- ################################################################### -->
  <!-- logo facebook -->
  <symbol id="facebook" viewBox="0 0 512 512">
    <path
      d="m492 352c11.046875 0 20-8.953125 20-20v-252c0-44.113281-35.886719-80-80-80h-352c-44.113281 0-80 35.886719-80 80v352c0 44.113281 35.886719 80 80 80h352c44.113281 0 80-35.886719 80-80 0-11.046875-8.953125-20-20-20s-20 8.953125-20 20c0 22.054688-17.945312 40-40 40h-98v-146h46.289062c10.121094 0 18.648438-7.5625 19.859376-17.609375l2.648437-22c1.429687-11.90625-7.863281-22.390625-19.859375-22.390625h-48.9375v-67c0-16.570312 13.429688-30 30-30h25c11.046875 0 20-8.953125 20-20v-20.230469c0-10.246093-7.738281-18.855469-17.933594-19.894531-10.140625-1.03125-20.871094-1.875-27.066406-1.875-23.324219 0-46.703125 9.839844-64.140625 26.992188-17.964844 17.671874-27.859375 40.820312-27.859375 65.183593v66.824219h-45c-11.046875 0-20 8.953125-20 20v22c0 11.046875 8.953125 20 20 20h45v146h-192c-22.054688 0-40-17.945312-40-40v-352c0-22.054688 17.945312-40 40-40h352c22.054688 0 40 17.945312 40 40v252c0 11.046875 8.953125 20 20 20zm0 0"
      fill="currentColor" />
  </symbol>
  <!-- logo instagram -->
  <symbol id="instagram" viewBox="0 0 512 512">
    <path
      d="m261.039062 512c-1.695312 0-3.390624 0-5.097656-.007812-40.132812.097656-77.214844-.921876-113.277344-3.117188-33.0625-2.011719-63.242187-13.4375-87.28125-33.039062-23.195312-18.914063-39.035156-44.488282-47.078124-76.003907-7-27.4375-7.371094-54.371093-7.726563-80.421875-.257813-18.691406-.5234375-40.839844-.578125-63.363281.0546875-22.617187.320312-44.765625.578125-63.457031.355469-26.046875.726563-52.980469 7.726563-80.421875 8.042968-31.515625 23.882812-57.089844 47.078124-76.003907 24.039063-19.601562 54.21875-31.027343 87.285157-33.039062 36.0625-2.191406 73.152343-3.2148438 113.371093-3.1171875 40.144532-.0859375 77.214844.9257815 113.277344 3.1171875 33.0625 2.011719 63.242188 13.4375 87.28125 33.039062 23.199219 18.914063 39.035156 44.488282 47.078125 76.003907 7 27.4375 7.371094 54.375 7.726563 80.421875.257812 18.691406.527344 40.839844.578125 63.363281-.050781 22.617187-.320313 44.765625-.578125 63.457031-.148438 11.046875-9.273438 19.875-20.269532 19.726563-11.046874-.152344-19.875-9.230469-19.726562-20.273438.253906-18.582031.523438-40.585937.574219-62.910156-.050781-22.230469-.320313-44.234375-.574219-62.816406-.324219-23.714844-.660156-48.238281-6.488281-71.078125-5.878907-23.039063-17.183594-41.507813-33.597657-54.894532-17.753906-14.480468-39.433593-22.59375-64.433593-24.113281-35.214844-2.140625-71.464844-3.128906-110.847657-3.046875-39.476562-.09375-75.730468.90625-110.945312 3.046875-25 1.519531-46.675781 9.632813-64.433594 24.109375-16.414062 13.386719-27.71875 31.855469-33.597656 54.898438-5.828125 22.839844-6.164062 47.363281-6.488281 71.078125-.253907 18.582031-.519531 40.585937-.574219 62.910156.054688 22.230469.320312 44.234375.574219 62.816406.324219 23.714844.660156 48.238281 6.488281 71.078125 5.878906 23.039063 17.183594 41.507813 33.597656 54.894532 17.757813 14.480468 39.433594 22.59375 64.433594 24.113281 35.214844 2.140625 71.476562 3.140625 110.851562 3.042969 39.480469.09375 75.726563-.902344 110.941407-3.042969 25-1.519531 46.675781-9.632813 64.433593-24.113281 11.824219-9.644532 21.0625-22.019532 27.457032-36.785157 4.390625-10.132812 16.164062-14.792969 26.300781-10.402343 10.136719 4.390624 14.792969 16.164062 10.40625 26.300781-8.964844 20.699219-22.046875 38.15625-38.886719 51.886719-24.039062 19.605468-54.21875 31.027343-87.28125 33.039062-34.535156 2.101562-70.011718 3.125-108.277344 3.125zm118.949219-256c0-68.925781-56.074219-125-125-125-68.921875 0-125 56.074219-125 125s56.078125 125 125 125c68.925781 0 125-56.074219 125-125zm-40 0c0 46.867188-38.128906 85-85 85-46.867187 0-85-38.132812-85-85s38.132813-85 85-85c46.871094 0 85 38.132812 85 85zm54-165c-16.566406 0-30 13.429688-30 30s13.433594 30 30 30c16.570313 0 30-13.429688 30-30s-13.429687-30-30-30zm0 0"
      fill="currentColor" />
  </symbol>
  <!-- ################################################################### -->
  <!-- Pilates icons -->
  <!-- ################################################################### -->
  <!-- Hundred -->
  <symbol id="pilates-hundred" viewBox="0 0 297.12 300">
    <title>The Hundred</title>
    <g>
      <path fill="#5a4a45"
        d="M297,154.77A124.62,124.62,0,0,0,295.59,129c-3.67-20.56-9.8-35.58-21.17-53.11-12-17.33-23.71-28.69-41.35-40.25-18.63-11.44-34.43-17.2-56-20.61-17.81-2.29-31.76-1.87-49.33,1.74a95.6,95.6,0,0,0-9.54,2.65c-16.36,6.15-41.7,26.19-25.81,20.17,9.64-4.3,17.41-8.54,27.63-12.39a141.48,141.48,0,0,1,40.4-8.76,117.54,117.54,0,0,1,16,.26c21.37,2.2,37.13,7.61,55.62,18.56,17.6,11.2,29.22,22.42,41.16,39.49,11.34,17.33,17.41,32.18,21.26,52.5a133.14,133.14,0,0,1,1.86,20.81c-.34,13.06-2,24.06-6.95,36.19a40.94,40.94,0,0,1-5.07,9,32.66,32.66,0,0,0,5.55-8.95c4.53-10.51,6.29-20.2,7.11-31.59Z" />
      <path fill="#5a4a45"
        d="M192.69,286.36a153.5,153.5,0,0,0,32.73-19.58,139.61,139.61,0,0,0,32.51-36.14c9.41-15.63,14.45-28.75,18-46.67,3.07-18.09,3-32.22-.32-50.27a138.3,138.3,0,0,0-7.3-24.37c-3.06-7.56-6.22-14.82-9.72-22.2-1-2-13.53-24.35-3.35-14.33a68.54,68.54,0,0,1,8.05,11c9.34,16.19,13.62,30.58,16.23,49,.12,1,.26,2,.36,3.06a154.86,154.86,0,0,1-2.07,48.45c-3.95,18-9.2,31.29-18.81,47a139.9,139.9,0,0,1-33,36.32,144.54,144.54,0,0,1-29.21,17.53c-5,2.31-9.78,4.31-14.9,6.2-8.46,3.07-17.51,5.45-25.69,8.63,7.14-3.38,17.76-6.29,25.56-9.19,3.7-1.39,7.29-2.85,10.89-4.45Z" />
      <path fill="#5a4a45"
        d="M.15,145.24A125.26,125.26,0,0,0,1.52,171c3.67,20.58,9.8,35.58,21.16,53.11,12,17.32,23.72,28.69,41.35,40.26,18.66,11.43,34.44,17.19,56.05,20.61,17.8,2.28,31.76,1.86,49.33-1.76a90.11,90.11,0,0,0,9.52-2.64c16.37-6.15,41.72-26.19,25.83-20.15-9.65,4.28-17.42,8.53-27.64,12.37a141.14,141.14,0,0,1-40.38,8.75,115.83,115.83,0,0,1-16-.24c-21.39-2.2-37.15-7.62-55.64-18.55-17.6-11.21-29.21-22.42-41.16-39.52C12.59,205.91,6.5,191.05,2.65,170.73A135.56,135.56,0,0,1,.79,149.94c.34-13.09,2-24.06,7-36.21a41.35,41.35,0,0,1,5.07-9,33.27,33.27,0,0,0-5.55,9C2.73,124.16,1,133.84.15,145.24Z" />
      <path fill="#5a4a45"
        d="M38,71.36C29.34,86.14,24.57,98.89,21.18,116c-3.06,18.09-3,32.23.31,50.27a139,139,0,0,0,7.31,24.38c3.07,7.56,6.24,14.82,9.74,22.2.94,2,13.5,24.35,3.34,14.34a69.21,69.21,0,0,1-8.06-11c-9.35-16.19-13.63-30.58-16.24-49-.12-1-.23-2-.36-3.06a154.87,154.87,0,0,1,2.08-48.45c3.81-17.38,8.84-30.32,17.79-45.34.28.33.58.65.92,1Z" />
      <path fill="#5a4a45"
        d="M104.41,13.64A154,154,0,0,0,71.68,33.22a161,161,0,0,0-13,11.58c-.11-.42-.24-.84-.36-1.25A160.79,160.79,0,0,1,71.07,32.36,144.37,144.37,0,0,1,100.3,14.82c4.94-2.3,9.76-4.29,14.88-6.17,8.46-3.08,17.51-5.47,25.7-8.65-7.15,3.38-17.77,6.29-25.58,9.19-3.68,1.39-7.26,2.85-10.89,4.45Z" />
      <path fill="#5a4a45"
        d="M120.44,162.28l-3.73-5.84c-4.28-6.65-8.41-13.24-13.14-19.56s-9.89-12.14-14.71-18.66c-8.33-11.93-15.5-23.66-21.14-37.12a86,86,0,0,1-5.67-19.71,116.94,116.94,0,0,0-3.75-17.9c-.65-2.33-7.3-25-10.48-24.69-7.33,6.06-4.7,19.77-3.41,27.65A104,104,0,0,0,50.86,67a181.16,181.16,0,0,0,8.8,18A250.2,250.2,0,0,0,85.5,120.75c5.28,6.38,10.6,11.7,15.94,17.82a211.72,211.72,0,0,1,13.77,18.84c1.18,1.71,2.36,3.45,3.54,5.19,4.11,6,8.18,12,12.05,18.2,3.34,5.52,6.06,10.66,8.89,16.42a170.56,170.56,0,0,0-8.27-16.78c-3.48-6.17-7.2-12.17-11-18.16Z" />
      <path fill="#FEFEFE"
        d="M83.84,105.61C81.21,96.3,76.7,87.47,72.56,78.79c-3.72-7.94-7.2-16-10.92-23.86C60,51.77,52.54,44.27,52,48.7c.22,2.83,7.33,11,9.31,13.58,4.07,5.26,7.06,11.13,10.1,17a239.83,239.83,0,0,1,11.64,25.55c1,3.37,2,8.06.71,11.45,1.59-3.09.88-7.5,0-10.71Z" />
      <path fill="#5a4a45"
        d="M83.84,105.61c.07,0,.12.08.18.11-2.66-9.33-7.21-18.22-11.37-27-.05-.09-.12-.26-.18-.36-3.69-7.82-7.08-15.77-10.78-23.59A15.85,15.85,0,0,0,57,48.93c-1-.71-3-1.89-4.25-1.6a1.1,1.1,0,0,0-.63.36,1.58,1.58,0,0,0-.2.94,2.33,2.33,0,0,0,.06.48,11.08,11.08,0,0,0,.5,1.36,25.46,25.46,0,0,0,1.69,2.83c2.21,3.22,4.75,6.14,7.2,9.19,4,5.22,7,11,10,16.86.47.89.92,1.75,1.36,2.63a218.69,218.69,0,0,1,10.22,22.77.7.7,0,0,0,.15.12,1.09,1.09,0,0,0-.18-.15c1,3.3,2,8.06.71,11.4l.32.41c1.66-3.07.91-7.58.09-10.81l-.18-.11a1.14,1.14,0,0,0-.17-.15c.8,3.16,1.54,7.65-.06,10.66a.71.71,0,0,0,.18.2,1.24,1.24,0,0,0,.14.18c1.39-3.39.33-8.18-.67-11.55a216.57,216.57,0,0,0-10.4-23.06c-.44-.89-.89-1.74-1.33-2.6-3-6-6.09-11.93-10.19-17.25-1.83-2.33-3.72-4.55-5.49-6.91-.86-1.15-1.72-2.3-2.46-3.51a13.57,13.57,0,0,1-.79-1.45,5,5,0,0,1-.42-1.12c0-.09,0-.18-.06-.27a.89.89,0,0,1,.15-.56,1,1,0,0,1,.59-.38c1.24-.27,3.19.88,4.17,1.59a14.7,14.7,0,0,1,4.54,5.65c3.67,7.73,7.06,15.62,10.73,23.39a1.62,1.62,0,0,1,.17.35c4.11,8.65,8.57,17.42,11.2,26.64a1.14,1.14,0,0,1,.17.15Z" />
      <path fill="#FEFEFE"
        d="M99.94,143.46c-.83-.58-1.62-1.17-2.45-1.8-7.24-5.43-11.37-10-17-17.16a127.12,127.12,0,0,1-13.67-23.09c-1.21-3-3.37-16.1.36-11.93,2.09,3.63,3.84,12.85,5.38,17.52a67,67,0,0,0,8.73,16.89,88.63,88.63,0,0,0,16.61,17.42c.52.45,1.06.89,1.58,1.33,2.48,1.86,6.41,4.64,9.52,5.08-2.92-.09-6.77-2.63-9.1-4.25Z" />
      <path fill="#5a4a45"
        d="M99.94,143.46c0-.05,0-.11,0-.17l-2.3-1.68c-7.27-5.44-11.41-10-17-17.16l-.63-.8a124.69,124.69,0,0,1-13-22.21A22.21,22.21,0,0,1,65.21,92c.06-.68.26-2.48.94-2.86a.44.44,0,0,1,.51,0,1.49,1.49,0,0,1,.53.53c.09.11.17.26.27.41a19.28,19.28,0,0,1,1.24,3.25c.68,2.3,1.27,4.67,1.85,7s1.12,4.43,1.83,6.56a68.68,68.68,0,0,0,8.86,17.09c.68.92,1.34,1.8,2,2.69A87.54,87.54,0,0,0,97.87,141.4c.56.44,1.09.92,1.65,1.39h0v0c2.51,1.89,6.46,4.66,9.62,5.2a1,1,0,0,1-.14-.3l-.18-.26c-2.87-.06-6.68-2.57-9-4.2a1.91,1.91,0,0,0,.06.21c0,.06,0,.12,0,.18,2.33,1.65,6.26,4.25,9.21,4.37a4.74,4.74,0,0,0-.29-.54c-3.1-.5-6.91-3.16-9.4-5,0,.05,0,.11,0,.17v-.15c-.49-.41-1-.83-1.47-1.24a87.46,87.46,0,0,1-14.62-14.73c-.68-.89-1.36-1.78-2-2.7a65.74,65.74,0,0,1-8.68-16.71c-1-2.86-1.68-5.93-2.45-8.89-.39-1.54-.77-3.07-1.25-4.61A22.5,22.5,0,0,0,67.63,90a4,4,0,0,0-.39-.59,2.39,2.39,0,0,0-.79-.82.61.61,0,0,0-.6,0c-.49.26-.7,1-.82,1.56a15.55,15.55,0,0,0,0,5.05,21.76,21.76,0,0,0,1.71,6.18,125.74,125.74,0,0,0,13.14,22.44c.22.27.42.53.6.8,5.61,7.17,9.75,11.75,17,17.19.85.61,1.71,1.27,2.57,1.89,0-.06,0-.12,0-.18Z" />
      <path fill="#5a4a45"
        d="M189.1,201.06l-1.92.09c-6.2.23-12.17.2-18.4-.18-5.07-.35-9.83-1-14.85-1.8a55.1,55.1,0,0,0-12.52-.89A142.72,142.72,0,0,0,120.82,201c-7.35,1.48-14.83,3.42-22.3,4.08a36.39,36.39,0,0,1-3.92.15,62.23,62.23,0,0,0-17.82,2.06c-2,.62-19.19,7.53-18.18,10.69,5.19,3.9,14.61,1.71,20.43.8a177.44,177.44,0,0,0,18.79-3.63l2.6-.71c7.43-2.3,14.46-5.2,21.79-7.68a137.32,137.32,0,0,1,19.46-4.64,51.54,51.54,0,0,1,11.84-.06c5.11.42,10.05.83,15.19,1,6.23.12,12.31-.09,18.54-.5.45,0,.92-.06,1.36-.09,4.7-.36,9.39-.83,14.08-1a22.3,22.3,0,0,1,9,1.21,10.76,10.76,0,0,1,4.35,3.55,17.18,17.18,0,0,1,1.8,3.31,14.94,14.94,0,0,0-1.68-3.37,10.28,10.28,0,0,0-4.32-3.84,21.8,21.8,0,0,0-9.16-1.62c-4.48-.07-9.09.26-13.58.44Z" />
      <path fill="#FEFEFE"
        d="M133.46,196.57a44.33,44.33,0,0,0-13.7,0c-7.77,1.12-14.39,3.25-21.82,5.55-2.9.95-5.89,1.74-8.81,2.66-3.24,1.18-10.48,6.85-6.53,7.5,2.43,0,10.22-5,12.61-6.44,1-.59,2.07-1.15,3.14-1.68A72,72,0,0,1,120,197.43a55.65,55.65,0,0,1,12.63-.56c2.9.41,6.65,1.44,8.39,4-1.42-2.63-4.79-3.81-7.53-4.34Z" />
      <path fill="#5a4a45"
        d="M133.46,196.57l.15-.09a45.3,45.3,0,0,0-13.85,0,86.85,86.85,0,0,0-11.34,2.39c-3.49,1-7,2.07-10.48,3.16-3,.95-6,1.75-8.93,2.66a14.27,14.27,0,0,0-5.75,3.45c-.71.75-2,2.37-1.84,3.49a.8.8,0,0,0,.3.53,1.53,1.53,0,0,0,.83.21c.14,0,.29,0,.41,0a8.82,8.82,0,0,0,1.27-.36,20.9,20.9,0,0,0,2.65-1.17c2.93-1.48,5.7-3.26,8.51-4.94,1-.59,2-1.12,3-1.62a69.09,69.09,0,0,1,13-5,63.64,63.64,0,0,1,8.65-1.83,59.14,59.14,0,0,1,12.47-.53l.14-.08-.17.08c2.86.42,6.64,1.42,8.38,4l.36-.06c-1.36-2.69-4.79-3.86-7.56-4.4l-.15.09-.18.08c2.69.51,6.15,1.69,7.53,4.29.07,0,.12,0,.18,0a.38.38,0,0,1,.18,0c-1.71-2.66-5.53-3.69-8.45-4.11a56.37,56.37,0,0,0-12.78.57,74.18,74.18,0,0,0-21.62,6.73c-1.13.56-2.22,1.13-3.28,1.77-2.16,1.27-4.23,2.6-6.41,3.81-1.09.59-2.18,1.19-3.31,1.71-.44.18-.89.39-1.36.57a5.75,5.75,0,0,1-1,.26c-.06,0-.15,0-.24,0a.71.71,0,0,1-.5-.15.65.65,0,0,1-.29-.5c-.18-1.09,1.11-2.68,1.82-3.4a13.32,13.32,0,0,1,5.53-3.3c2.89-.92,5.81-1.77,8.71-2.63,3.52-1.06,7-2.18,10.52-3.16a73.84,73.84,0,0,1,11.31-2.39,44.21,44.21,0,0,1,13.49,0l.18-.08Z" />
      <path fill="#FEFEFE"
        d="M166.66,206.55a69.87,69.87,0,0,1-13.85.71,101.53,101.53,0,0,0-10.76-.21c-5.72.3-11.4.78-17.09,1.34a22.85,22.85,0,0,1-2.34.05c-.77-.09-9.63-1.44-6.35-3.24,1.39-.57,4-.48,5.5-.36,3,.11,5.9.5,8.94.77,3.79.29,7.48.41,11.26.5,3.8-.06,7.14.21,10.93.48a93.7,93.7,0,0,0,12.76-.25c1-.14,1.91-.29,2.89-.5,2-.56,4.72-1.56,6.17-3.13-1.36,1.83-4.11,2.84-6.2,3.49l-1.86.35Z" />
      <path fill="#5a4a45"
        d="M166.66,206.55a.49.49,0,0,1-.15-.09,68.34,68.34,0,0,1-13.7.71c-2.72-.15-5.32-.32-8.06-.29L142,207c-5.69.29-11.31.76-17,1.29a16.2,16.2,0,0,1-2.41.06l-.72-.08a16,16,0,0,1-4-.92c-.56-.21-1.8-.77-2-1.39a.36.36,0,0,1,.09-.38.9.9,0,0,1,.47-.33,1.42,1.42,0,0,1,.33-.12,13.38,13.38,0,0,1,2.59-.26c.83,0,1.62,0,2.45.09,1.1.09,2.16.12,3.25.24,1.84.17,3.67.41,5.49.56,3.85.26,7.6.38,11.44.44,1.77,0,3.48,0,5.26.12s3.77.26,5.67.38a92.64,92.64,0,0,0,12.9-.24v0h0c.92-.12,1.8-.27,2.72-.45,2.1-.56,4.9-1.59,6.41-3.25h-.24a1.23,1.23,0,0,0-.27,0c-1.27,1.76-3.92,2.74-5.93,3.36-.68.18-1.36.29-2.07.41l.21.09a1.4,1.4,0,0,0,.17.09c.56-.12,1.12-.21,1.69-.35,2.09-.56,5.11-1.72,6.44-3.58l-.47,0c-1.51,1.59-3.88,2.41-5.94,3-1,.2-2,.38-3.08.53l.19.08-.15-.08a89.57,89.57,0,0,1-12.58.23l-5.7-.38c-1.78-.09-3.49-.12-5.26-.09-3.75-.09-7.39-.21-11.14-.51-2.48-.2-5-.56-7.47-.7a14.66,14.66,0,0,0-1.62-.09c-.71-.06-1.39-.09-2.1-.09a12.53,12.53,0,0,0-2.93.32,2.14,2.14,0,0,0-.52.18,1.46,1.46,0,0,0-.72.48.45.45,0,0,0-.08.47c.12.44.65.77,1,1a13.26,13.26,0,0,0,3.63,1.16,15.39,15.39,0,0,0,2.6.32,18.07,18.07,0,0,0,2.21-.06c5.74-.56,11.44-1.06,17.19-1.32.89-.07,1.81-.1,2.7-.1,2.74,0,5.31.15,8.06.3a69.41,69.41,0,0,0,14-.71,1.4,1.4,0,0,1-.17-.09Z" />
      <path fill="#5a4a45"
        d="M79.68,220.9a129.92,129.92,0,0,0,21-2.45c23.69-4.19,54.9-1.2,78.85,2.87-9.33-1-17.6-1.57-27-1.86-15.3-.51-37-1.54-51.69.2a131.67,131.67,0,0,1-21.23,1.24Z" />
      <path fill="#5a4a45"
        d="M215.77,188.45c5.58-7.35-9.78-.27-5-19.55,4.9-19.67,31.31-36.78,45.18-15.51,7.86,12,3.26,26.76-9,33.64-5.88,3.31-9.66,3.84-10.31,11.55,0-7.89,3.87-9,9.57-12.82,8.48-5.79,12.82-16.25,8.3-25.84-9.48-20.15-35.21-9.52-41.79,9.54-6.15,17.75,9.48,11.9,3,19Z" />
      <path fill="#5a4a45"
        d="M232.81,208.82c-6.56,20.15-12.52,29.9-36,29-18.23-.74-31.54-4.55-50.68-1.68-13.14,1.95-34.26,5-44.18-6.65-2.81-3.28-2.92-5.94-2.84-10l.09,1.92c1.45,17.54,29.65,14.91,41.17,12.35,24.63-5.44,27.32-3.55,51.45.14,25.25,3.87,32.1-2.66,41-25.05Z" />
      <path fill="#5a4a45"
        d="M38.71,59c-8.38,16,6.15,7.15,15.51,33,8,22,1.42,17.52,16.57,39.55,20.85,30.33,21.15,34.2,25.52,69.23-5.58-28.89-6.09-36.42-25-60.61-20.08-25.66-12-20.94-19.6-47.37C44.33,67.27,29.12,74.6,38.71,59Z" />
      <path fill="#5a4a45" d="M142.65,195.77c18.37-2.65,19.48-2,37.24.95l-10.46.08c-9.39.18-17.43-.79-26.78-1Z" />
    </g>
  </symbol>
  <!-- Swan Dive -->
  <symbol id="teaser" viewBox="0 0 302.97 300">
    <title>teaser</title>
    <g>
      <path fill="#5a4a45"
        d="M170.13,1.28a125.15,125.15,0,0,0-26-1c-21,1.77-36.67,6.53-55.35,16.32C70.22,27,57.71,37.72,44.44,54.37,31.2,72,23.94,87.38,18.5,108.77c-4,17.7-4.85,31.75-2.85,49.76a93.07,93.07,0,0,0,1.77,9.82c4.65,17,22.44,44.36,17.86,27.84-3.42-10.1-7-18.3-9.87-28.94a142,142,0,0,1-5-41.42,117.48,117.48,0,0,1,1.75-16.08C26.33,88.47,33.24,73.13,46,55.56c12.9-16.63,25.26-27.27,43.54-37.68,18.48-9.77,34-14.49,54.76-16.47a134.87,134.87,0,0,1,21.08.07c13.1,1.56,24,4.25,35.74,10.36a42.29,42.29,0,0,1,8.61,5.94,33.3,33.3,0,0,0-8.49-6.41C191.08,5.83,181.5,3.16,170.13,1.28Z" />
      <path fill="#5a4a45"
        d="M292.66,118.36a155.29,155.29,0,0,0-16.61-34.73,141.67,141.67,0,0,0-33.31-36c-14.83-10.91-27.54-17.2-45.22-22.45-17.9-4.76-32.11-6-50.56-4.36a140.27,140.27,0,0,0-25.18,5.06c-7.89,2.38-15.47,4.87-23.22,7.7-2.06.78-25.74,11.33-14.72,2A68.12,68.12,0,0,1,95.65,28.5c17.14-7.88,32-10.85,50.75-11.75,1,0,2.07-.06,3.11-.07A156.07,156.07,0,0,1,198,23.28c17.74,5.65,30.58,12.16,45.5,23.3A141.27,141.27,0,0,1,277,83.1a146.84,146.84,0,0,1,14.89,31c1.85,5.21,3.41,10.24,4.84,15.55,2.3,8.8,3.85,18.11,6.27,26.64-2.73-7.5-4.66-18.45-6.85-26.56-1.05-3.84-2.17-7.59-3.46-11.36Z" />
      <path fill="#5a4a45"
        d="M132.85,298.72a126.42,126.42,0,0,0,26,1c21-1.77,36.67-6.52,55.35-16.32,18.53-10.45,31-21.16,44.33-37.8,13.23-17.68,20.49-33,25.94-54.42,4-17.68,4.84-31.75,2.84-49.75a93.81,93.81,0,0,0-1.77-9.81c-4.65-17-22.43-44.38-17.85-27.84,3.42,10.1,7,18.3,9.86,28.94a142.32,142.32,0,0,1,5,41.4,115.4,115.4,0,0,1-1.74,16.09c-4.2,21.29-11.12,36.63-23.83,54.2-12.92,16.64-25.27,27.27-43.56,37.68-18.46,9.76-34,14.5-54.76,16.47a137.09,137.09,0,0,1-21.06-.07c-13.12-1.56-24-4.25-35.76-10.37a40.75,40.75,0,0,1-8.61-5.94,33.28,33.28,0,0,0,8.49,6.42c10.15,5.54,19.71,8.21,31.09,10.09Z" />
      <path fill="#5a4a45"
        d="M10.3,181.65a155.29,155.29,0,0,0,16.63,34.72,141,141,0,0,0,33.3,36,134.82,134.82,0,0,0,45.22,22.46c17.91,4.77,32.13,6,50.56,4.38a140.11,140.11,0,0,0,25.18-5.07c7.9-2.39,15.48-4.88,23.23-7.72,2.05-.76,25.73-11.3,14.73-2a69,69,0,0,1-11.83,7.07c-17.14,7.89-32,10.85-50.75,11.75l-3.11.08a156.7,156.7,0,0,1-48.51-6.6c-17.74-5.66-30.57-12.19-45.5-23.3A142,142,0,0,1,26,216.91a145.81,145.81,0,0,1-14.89-31c-1.85-5.19-3.4-10.22-4.82-15.54C4,161.57,2.43,152.25,0,143.72c2.73,7.5,4.66,18.45,6.85,26.57,1.05,3.84,2.19,7.57,3.45,11.36Z" />
      <path fill="#5a4a45"
        d="M146.91,171.84c.42-.63.83-1.23,1.26-1.83,4-6,7.21-12.61,11.35-18.3,3.4-4.35,6.33-6.47,11-9.21,6.32-3.55,9.36-5.43,14.82-10.53a147,147,0,0,0,21.26-26.11c5.22-8.32,10.28-18.64,16-26.21.81-1,1.64-2.11,2.38-3.19,5.07-7.33,10.47-14.82,13.15-23.43.9-2.93,3.19-18.55-.74-18.6-5.19,2.31-8.05,7.9-11.21,12.49a122,122,0,0,0-14.05,22.53c-.86,1.91-1.64,3.82-2.35,5.76-3.37,9-6.27,17.74-10.32,26.5a130,130,0,0,1-17.41,27c-4.8,5.06-7.66,7.15-13.3,10.94-4.85,3.28-7.87,5.72-11.36,10.55-3.87,5.93-6.91,12.67-10.75,18.87-.27.42-.55.87-.84,1.28C141.19,177.44,136,184,131.14,191a114.6,114.6,0,0,0-8.47,13.92,140.35,140.35,0,0,1,9-13.51c5.12-6.56,10.37-12.79,15.23-19.52Z" />
      <path fill="#FEFEFE"
        d="M196.7,124.4c6.38-4.23,10.79-9.27,15.15-15.53,6.88-10.53,10.4-20,14.31-31.78.33-.84.62-1.67,1-2.48,1.1-3.28,2.56-16.84-1.85-13.21-2,2.78-3.07,9.85-3.57,13.24-.1,1.7-.13,3.37-.22,5.07-.53,9.66-5.33,20.6-10.61,28.59a65.57,65.57,0,0,1-13.62,15.06c-3.17,2.2-7.7,4.53-11.69,3.7,3.73,1.19,8-.72,11.15-2.66Z" />
      <path fill="#5a4a45"
        d="M196.7,124.4a2.07,2.07,0,0,1-.09.24c6.47-4.29,10.94-9.39,15.32-15.71a87.38,87.38,0,0,0,5.88-10.14,179.84,179.84,0,0,0,8.46-21.65c.33-.86.66-1.76,1-2.62a22.12,22.12,0,0,0,1.46-8.88c-.12-1.34-.57-4-1.79-4.86a1.19,1.19,0,0,0-.77-.18,2,2,0,0,0-.95.69,1.75,1.75,0,0,0-.33.44,10.73,10.73,0,0,0-.81,1.58,36.87,36.87,0,0,0-1.16,3.84,74.79,74.79,0,0,0-1.4,7.43c-.1,1.76-.13,3.52-.21,5.28-.39,7.21-3.25,15.18-6.53,21.55a72.84,72.84,0,0,1-4,6.83,64.09,64.09,0,0,1-13.5,14.9c0,.1,0,.15,0,.22s0-.15.09-.24c-3.11,2.21-7.66,4.56-11.6,3.72a4.63,4.63,0,0,0-.3.4c3.67,1.28,8.08-.66,11.18-2.6a2.07,2.07,0,0,0,.09-.24c0-.06.06-.15.09-.21-3,1.88-7.42,3.85-11.06,2.65a1.42,1.42,0,0,0-.18.22c0,.06-.09.11-.12.18,4,.92,8.59-1.47,11.75-3.67A65,65,0,0,0,211,108.36c1.49-2.27,2.77-4.47,4-6.85,3.32-6.47,6.29-14.64,6.65-22,.09-1.61.15-3.22.21-4.83s.48-3.1.78-4.62c.33-1.7.71-3.4,1.19-5.07.18-.63.39-1.28.63-1.91a7.07,7.07,0,0,1,.66-1.28c0-.08.11-.18.17-.26a1,1,0,0,1,.63-.4.91.91,0,0,1,.71.15c1.23.78,1.64,3.47,1.73,4.75A20.4,20.4,0,0,1,227,74.67c-.3.81-.59,1.59-.89,2.36A155.72,155.72,0,0,1,217.6,98.7a79.29,79.29,0,0,1-5.85,10.11c-3.9,5.76-9.09,11.59-15,15.38,0,.06-.06.15-.09.21Z" />
      <path fill="#FEFEFE"
        d="M156.6,143.69a35.65,35.65,0,0,1,8.82-9.65c4.33-3.55,7.82-6.12,11.9-10.14,5.78-5.79,11.15-11.63,16.49-17.84a25.28,25.28,0,0,1,5.3-4.55c.87-.54,6.68-4.06,5.64-.54a10.88,10.88,0,0,1-1.88,2.71c-3.43,3.82-7.75,6.65-11.74,9.81-4.5,3.58-8.74,7.33-13,11.21s-7.89,6.56-12.25,10a40.86,40.86,0,0,0-8.2,8.15,25.54,25.54,0,0,0-2.74,5.45,11.51,11.51,0,0,0,.18,6.53,10.46,10.46,0,0,1-.5-6.77,22.47,22.47,0,0,1,2-4.38Z" />
      <path fill="#5a4a45"
        d="M156.6,143.69a.9.9,0,0,1,.24-.12,35.59,35.59,0,0,1,8.65-9.45c4.32-3.55,7.84-6.11,11.92-10.14l.06-.06c5.66-5.69,11.12-11.62,16.37-17.73a21.08,21.08,0,0,1,2.86-2.72c.87-.68,1.67-1.28,2.6-1.88a21.32,21.32,0,0,1,2-1.1c.69-.33,2.33-1,3.07-.63a.53.53,0,0,1,.3.45,1.29,1.29,0,0,1-.12.75,2.27,2.27,0,0,1-.21.41,11.55,11.55,0,0,1-1.64,2.15c-.18.18-.35.39-.53.57a52.6,52.6,0,0,1-5.55,4.89c-1.82,1.43-3.67,2.74-5.49,4.17-4.53,3.63-8.82,7.45-13.14,11.36-1,.92-2,1.85-3,2.71-3.05,2.62-6.14,4.83-9.25,7.31a41.17,41.17,0,0,0-8.31,8.26,0,0,0,0,0,0,0s0,0-.05,0a25.63,25.63,0,0,0-2.66,5.28,12.22,12.22,0,0,0,.12,6.86l.18-.24c.06-.09.12-.15.18-.24a10,10,0,0,1-.56-6.41,22.81,22.81,0,0,1,2.14-4.65,1.22,1.22,0,0,0-.27.15l-.21.09a25,25,0,0,0-1.94,4.2,11.22,11.22,0,0,0,.48,7.1l.33-.42a12,12,0,0,1-.21-6.23,25,25,0,0,1,2.89-5.69.7.7,0,0,0-.27.12l.24-.1a40.65,40.65,0,0,1,8-7.92c3.1-2.51,6.21-4.75,9.28-7.34,1-.89,2-1.79,3-2.71,4.23-3.85,8.44-7.54,12.91-11.09,2.44-1.94,5-3.7,7.42-5.72a43.78,43.78,0,0,0,3.64-3.32c.26-.29.56-.59.83-.92a13.85,13.85,0,0,0,1.61-2.15,4.93,4.93,0,0,0,.3-.66,2.87,2.87,0,0,0,.21-1.13.83.83,0,0,0-.39-.5,2.64,2.64,0,0,0-1.85.12,16,16,0,0,0-3.9,2c-.18.1-.33.21-.48.3a24.49,24.49,0,0,0-4.68,4.18c-5.28,6.17-10.76,12.13-16.52,17.88l-.06.06a149.48,149.48,0,0,1-11.86,10.08,35.71,35.71,0,0,0-9,9.87l.21-.09Z" />
      <path fill="#5a4a45"
        d="M101.68,164.8c6.11,6.32,9.9,11.72,11.45,20.6A79.27,79.27,0,0,0,117,200.09a76.77,76.77,0,0,1-7.36-13.68c-3.91-9-1.79-11.12-8-21.61Z" />
      <path fill="#5a4a45"
        d="M179,102.64c-9.36,9.63-19.61,21.16-31.72,27.22-10.82,5.39-13,8.5-22,16.4-11.65,10.28-21.28,16.27-34.79,23.54,9.87-6.44,17.54-11.86,26.21-20,12.58-11.9,12.08-16.43,29.1-23.17,12.07-4.8,23.4-15.51,33.15-24Z" />
      <path fill="#5a4a45"
        d="M103.44,137.19c.45-.15.93-.3,1.37-.48A78.25,78.25,0,0,0,122,128.9c4.69-3.31,7.82-7,13.13-10.58A220.91,220.91,0,0,1,165,103.47a100.81,100.81,0,0,1,14.58-5.33,30.23,30.23,0,0,0,9.15-4c3.28-2.36,17.44-15.74,15.06-19.53-7.87-4-16.91,2.18-23.32,6.35-2.86,1.94-5.57,3.94-8.31,6-3.83,2.83-7.67,5.42-11.6,8-9.22,6.41-19.2,12.73-27.88,19.8-5.4,4.29-7.78,8.08-12.29,11.87-4.76,3.69-10.54,6.2-16.12,8.4l-.87.33c-4.32,1.64-8.73,3-13,4.65-3.19,1.28-7,3-9.63,5.28a4.17,4.17,0,0,0-1.41,2,3.92,3.92,0,0,0,0,1.67,4.53,4.53,0,0,1,.09-1.64,4.35,4.35,0,0,1,1.5-1.85,37.23,37.23,0,0,1,9.74-4.62c4.21-1.38,8.53-2.38,12.79-3.73Z" />
      <path fill="#FEFEFE"
        d="M147.15,115.1c7.4-.66,13.92-3.16,20.51-6.47,6.35-3.34,11.36-6.38,16.58-11.36a9.51,9.51,0,0,0,2.62-6c.09-1.08.21-4.8-1.73-4.35a1.94,1.94,0,0,0-.69.5c-1.9,2.12-4.14,7.3-5.74,10.08-3,4.62-6.95,7.27-11.67,10a64,64,0,0,1-19.32,7c-3.24.33-6.94.09-9.77-1.76,2.56,2,6.05,2.51,9.21,2.36Z" />
      <path fill="#5a4a45"
        d="M147.15,115.1s-.06.09-.09.12c7.42-.63,14-3.16,20.66-6.47l.48-.27A67.22,67.22,0,0,0,184.36,97.3,9.6,9.6,0,0,0,187,91.81c0-.11,0-.23.06-.32a7.11,7.11,0,0,0-.54-4.24,1.35,1.35,0,0,0-.53-.5,1.11,1.11,0,0,0-.84,0,1.66,1.66,0,0,0-.32.17,4,4,0,0,0-.42.33l-.39.39a18.33,18.33,0,0,0-1.35,2c-1.42,2.56-2.61,5.28-4.1,7.78-3,4.62-6.89,7.24-11.54,9.93-.51.32-1.14.62-1.67.92a65.06,65.06,0,0,1-17.53,6,1,1,0,0,0-.1.15.75.75,0,0,0,.13-.15c-3.22.33-7,.12-9.72-1.72a1.41,1.41,0,0,0-.33.23c2.56,2.06,6.08,2.54,9.27,2.36,0,0,.06-.09.09-.12a.65.65,0,0,1,.12-.15c-3.13.15-6.65-.3-9.15-2.32a1.08,1.08,0,0,0-.18.11l-.12.12c2.8,1.91,6.56,2.12,9.84,1.76a64.63,64.63,0,0,0,17.76-6.14c.57-.3,1.11-.6,1.68-.93,4.71-2.74,8.79-5.42,11.78-10.1,1.13-1.91,2.11-4,3.12-5.93a32,32,0,0,1,1.56-2.81,8.3,8.3,0,0,1,.7-1,2.89,2.89,0,0,1,.25-.24,2.35,2.35,0,0,1,.41-.36c.07,0,.12-.09.18-.09a.57.57,0,0,1,.54,0,1.18,1.18,0,0,1,.51.48,6.05,6.05,0,0,1,.56,3.49c0,.3-.06.62-.08,1a9.3,9.3,0,0,1-2.51,5.28,66.2,66.2,0,0,1-16,11.09c-.15.09-.33.15-.48.24-6.53,3.28-13,5.75-20.33,6.41a.65.65,0,0,0-.12.15Z" />
      <path fill="#FEFEFE"
        d="M117.45,123.09c0-.06.13-.3.15-.33,3.1-6.8,5-8.85,11.16-13.56,6.2-4.54,13.14-7.54,20.36-10,3-.81,11.95-.27,9.48,2.54-2.48,1.46-10.17,1.51-13.5,2A38.57,38.57,0,0,0,129.35,110c-6.46,4.74-7.57,6.44-11.36,12.94a1.32,1.32,0,0,1-.12.2c-1.16,2.54-2.5,4.69-2.89,7.52,0-2.59,1.49-5.25,2.47-7.57Z" />
      <path fill="#5a4a45"
        d="M117.45,123.09h.13a1.13,1.13,0,0,1,.12-.21c3.1-6.83,4.88-8.86,11.15-13.6.77-.59,1.58-1.15,2.41-1.69a83.22,83.22,0,0,1,17.86-8.32,10.62,10.62,0,0,1,2.92-.48,13.11,13.11,0,0,1,4.32.48,4.48,4.48,0,0,1,2.36,1.43.63.63,0,0,1,.09.51c0,.18-.21.33-.33.45l-.27.17a9.47,9.47,0,0,1-2.38.66c-1.79.27-3.61.41-5.4.53s-3.52.21-5.22.48a40.09,40.09,0,0,0-15.44,6.09c-.18.08-.33.23-.51.32-6.52,4.8-7.54,6.44-11.39,13,0,0,0,0,0,0h0a.32.32,0,0,0-.06.15c-1.21,2.56-2.62,4.77-3,7.66a.76.76,0,0,1,.21-.06l.24-.09c0-2.56,1.4-5.19,2.38-7.48h-.15s0,0-.11,0c-1,2.35-2.57,5-2.57,7.66.15,0,.27-.09.42-.12.39-2.77,1.61-4.86,2.77-7.33.06-.13.12-.21.18-.33h0c3.73-6.41,4.92-8.17,11.3-12.85.15-.12.3-.2.48-.33a39,39,0,0,1,15.11-6c2.3-.36,4.78-.45,7.1-.63,1.16-.08,2.35-.2,3.51-.38a9.16,9.16,0,0,0,2.69-.78,1.26,1.26,0,0,0,.42-.27,1.59,1.59,0,0,0,.51-.66.93.93,0,0,0-.1-.59,2.78,2.78,0,0,0-1.33-1,11.23,11.23,0,0,0-3.91-1,12,12,0,0,0-4.72.54,83.48,83.48,0,0,0-18,8.37c-.83.55-1.64,1.11-2.44,1.71-6.17,4.71-8.08,6.76-11.18,13.53-.07.15-.12.27-.18.42.06,0,.09,0,.11,0Z" />
      <path fill="#5a4a45"
        d="M236.32,66.35c.63,4.17,3.58,13.3,1.73,16.76-2.44,4.53-8.38,6.5-13.24,15.47-10.49,19.41-19.26,47.94-35.92,62-11.75,9.86-12.58,15.32-17.62,29.09-6.44,17.62-20.36,53.88-38.64,61.86-14.93,6.51-24-.68-32-12.82A241.29,241.29,0,0,0,83.05,215c-11-13.47-26.38-35.54-26.42-53.3a94.32,94.32,0,0,1,.93-11.51c-.63,8.49-1.13,14.85,1.81,23.1C66,192.11,81.06,207.7,93.81,222.49c5.4,6.26,10.14,14.57,15.29,20,8.48,8.95,19,7.36,27.38-.71,8.22-7.87,22.75-39.33,27.48-50.57,6.62-15.65,7.85-23.28,22-34.25,18.45-14.25,26.17-42.79,39.11-61.84,4.06-6,10.11-8.68,12.28-12.34,1.88-3.1-.65-12.52-1.07-16.43Z" />
      <path fill="#5a4a45"
        d="M78.28,138.71c1.13-12.07,9.57-.21,13.15-7.63,3.43-7.16-.81-28.47-4.74-35-5.87-9.74-19.89-9-28.06-3.72-11.35,7.42-5.6,24.06-2,34.2,1.49,4.29,1.37,4.65,1.33,9.06-.35-6.8-.95-6.53-3.66-12.7-5-11.51-7.87-27.43,5.13-34.64,10.64-5.93,24.18-5.79,30.38,6.14,3.69,7.07,7.36,32.05,1.91,38.28-5.28,6-11.63-5.34-13.42,6Z" />
    </g>
  </symbol>
  <!-- T-plank -->
  <symbol id="t-plank" viewBox="0 0 340.45 300">
    <title>T-plank</title>
    <g>
      <g>
        <path fill="#5a4a45"
          d="M262.54,209.43a130.57,130.57,0,0,0,8.7-48.07,136.25,136.25,0,0,0-2.6-24.85c-1.6-7.87-3.32-15.45-5.35-23.21-.55-2-8.58-25.94-.61-14.44a67.08,67.08,0,0,1,5.76,12.1c6.07,17.32,7.57,32,6.73,50.22l-.21,3a152.1,152.1,0,0,1-10.66,45.93l-1.76-.7Z" />
        <path fill="#5a4a45"
          d="M163.39,293.49a150.59,150.59,0,0,0,35.15-12.91,137.21,137.21,0,0,0,37.94-28.94l1.18-1.33,1.19.56-1.45,1.62a138.28,138.28,0,0,1-38.42,29,142.65,142.65,0,0,1-31.4,11.58c-5.19,1.32-10.21,2.35-15.49,3.24-8.72,1.42-17.88,2.08-26.36,3.65,7.51-2,18.29-2.82,26.35-4.2,3.8-.66,7.53-1.42,11.31-2.31Z" />
        <path fill="#5a4a45"
          d="M79,272.94c4.56,2.12,9.39,4.07,14.63,5.95,16.77,5.46,30.3,7.6,47.91,7.32a92.23,92.23,0,0,0,9.68-.82c16.91-2.94,45-17.66,28.59-14.74-10.1,2.39-18.36,5.05-28.92,6.91a139,139,0,0,1-40.57,1.08,116.07,116.07,0,0,1-15.41-3.18,147.2,147.2,0,0,1-14.39-5.06c-.5.87-1,1.71-1.52,2.54Z" />
        <path fill="#5a4a45"
          d="M3.39,122.22A121.46,121.46,0,0,0,0,147.31c-.22,20.51,3,36.12,10.73,55.09,8.41,18.91,17.64,32,32.54,46.38A146.36,146.36,0,0,0,66.92,266.6a5.86,5.86,0,0,0,1-1.36l.38-.7a136.79,136.79,0,0,1-23.74-17.12c-14.92-14-24.09-27-32.49-45.62C4.3,183,1.15,167.59,1.14,147.27a130.66,130.66,0,0,1,2-20.4C5.86,114.32,9.46,104,16.45,93.21A40.41,40.41,0,0,1,23,85.42a32.15,32.15,0,0,0-7,7.63c-6.29,9.31-9.76,18.33-12.62,29.17Z" />
        <path fill="#5a4a45"
          d="M128,14.3A150.88,150.88,0,0,0,92.83,27.21,137.25,137.25,0,0,0,54.88,56.15,131.28,131.28,0,0,0,29,97.88c-6.25,16.9-8.78,30.55-8.87,48.56a136.62,136.62,0,0,0,2.6,24.85c1.57,7.85,3.3,15.42,5.33,23.18.57,2.07,8.6,26,.62,14.45a67.25,67.25,0,0,1-5.76-12.08c-6.06-17.33-7.56-32-6.72-50.23.07-1,.12-2,.21-3A151.69,151.69,0,0,1,27.25,97.23C34.34,80.57,41.82,68.73,54,55.3a137.8,137.8,0,0,1,38.42-29,142.51,142.51,0,0,1,31.38-11.57c5.21-1.32,10.22-2.37,15.5-3.26C148,10,157.16,9.36,165.64,7.79c-7.52,2-18.29,2.82-26.35,4.21-3.81.65-7.54,1.4-11.31,2.3Z" />
        <path fill="#5a4a45"
          d="M288,185.56a122.65,122.65,0,0,0,3.38-25.09c.22-20.51-3-36.11-10.73-55.09-8.42-18.9-17.64-32-32.55-46.38C232.17,44.57,218,36.13,197.77,28.89c-16.76-5.44-30.3-7.59-47.91-7.3a92,92,0,0,0-9.66.8c-16.91,3-45,17.67-28.6,14.74,10.09-2.38,18.36-5.05,28.93-6.89a138.2,138.2,0,0,1,40.55-1.07,112.1,112.1,0,0,1,15.42,3.15c20.23,6,34.45,14.12,50.29,28,14.93,14,24.1,27,32.5,45.64,7.76,18.77,10.93,34.21,10.94,54.52a132.74,132.74,0,0,1-2,20.39c-2.69,12.47-6.26,22.69-13.14,33.41l.44.19c6.19-9.25,9.62-18.19,12.46-28.95Z" />
        <path fill="#5a4a45"
          d="M71.5,188.92c.09,2.2.29,4.35.55,6.55.81,7.07,2,14,2.32,21.17.06,6-1.11,11.05-1.8,16.93-.9,8-1.22,16.27-2.52,24.22-.38,2.46-.84,5.27-2.12,7.45a5.74,5.74,0,0,1-1.08,1.42,7.21,7.21,0,0,1-1.62,1c-3.74,1.63-7.65,2.67-11.51,4.09-1.39.58-13.07,6-12.35,8.12,3.91,3.66,9.89,2.75,14.76,2.12,5.94-.9,10.75-2,15.66-5.81a14.49,14.49,0,0,0,4.32-6.23,17.19,17.19,0,0,0,.52-1.77,45.68,45.68,0,0,0,.81-9.77c-.26-8.18-.78-16.33-.84-24.5.14-6,.76-11.28.29-17.37-.78-7.13-2.32-14.15-3.45-21.22-.29-2-.5-4-.67-6a41.64,41.64,0,0,1,.12-8.5A26.61,26.61,0,0,1,76,171.6a53.62,53.62,0,0,1,4.7-6.72,53.12,53.12,0,0,0-5,6.55,26.48,26.48,0,0,0-3.56,9.25,39.14,39.14,0,0,0-.58,8.24Z" />
        <path fill="#FEFEFE"
          d="M70.08,236c-2.93,6.06-3.66,14.76-4.06,21.43-.15,2.34-.32,4.63-.53,6.95a8.63,8.63,0,0,1-.69,2.67,3.53,3.53,0,0,0-.24.35c-.64,1-5.36,7.51-2.37,7.62,2.2-.52,4.18-2.9,5-4.89a6.48,6.48,0,0,0,.44-3.4c0-.55-.09-1.1-.12-1.68a41.17,41.17,0,0,1-.4-7.54,67.42,67.42,0,0,1,3.1-20.79A16.24,16.24,0,0,1,72,233.51a9.11,9.11,0,0,1,3.51-3.74,8.23,8.23,0,0,0-3.89,3.71A15,15,0,0,0,70.08,236Z" />
        <path fill="#5a4a45"
          d="M70.08,236c0-.07-.06-.09-.06-.15-2.7,5.6-3.57,13.75-4,19.92,0,.56-.06,1.11-.09,1.66-.15,2.31-.29,4.6-.52,6.93a9.29,9.29,0,0,1-.67,2.61s-.2.31-.23.37c-.84,1.22-1.71,2.49-2.44,3.77-.44.81-1.27,2.5-1,3.42a.78.78,0,0,0,.35.47,1.23,1.23,0,0,0,.78.11l.38-.09a4.14,4.14,0,0,0,1-.49A11,11,0,0,0,65.49,273a8,8,0,0,0,1.75-2.73,6.67,6.67,0,0,0,.46-3.57c0-.52-.09-1.07-.12-1.59a39.93,39.93,0,0,1-.41-7.57,34.13,34.13,0,0,1,.09-3.77,64.15,64.15,0,0,1,3-16.9s0-.09-.06-.12,0,.08.06.15a13.69,13.69,0,0,1,1.91-3.37A8.71,8.71,0,0,1,75.53,230a2.49,2.49,0,0,1,0-.4,8,8,0,0,0-4,3.88A12.68,12.68,0,0,0,70,235.89c0,.06,0,.08.06.15s0,.11,0,.14a13.34,13.34,0,0,1,1.72-2.67A7.67,7.67,0,0,1,75.53,230v-.4a8.82,8.82,0,0,0-3.66,3.91,16.78,16.78,0,0,0-1.74,3.13,63.78,63.78,0,0,0-3,17.14c-.09,1.28-.12,2.49-.12,3.77a40.16,40.16,0,0,0,.38,7.51c.06.61.09,1.19.14,1.77a6.54,6.54,0,0,1-.43,3.25,7.22,7.22,0,0,1-.72,1.48,11.08,11.08,0,0,1-2,2.2,10.26,10.26,0,0,1-1,.76c-.26.14-.58.28-.87.4l-.21,0a.82.82,0,0,1-.49-.06.76.76,0,0,1-.31-.43c-.27-.91.55-2.58,1-3.37a40,40,0,0,1,2.23-3.62s.18-.32.18-.32a7.67,7.67,0,0,0,.72-2.7c.23-2.35.38-4.64.52-7,.06-.55.09-1.1.12-1.66.41-6.09,1.28-14.09,3.91-19.63,0,0,0-.09,0-.14Z" />
        <path fill="#FEFEFE"
          d="M79,207.56a36.51,36.51,0,0,1,2.7,8.73c.93,7,0,11.13-.86,17.94-.55,3.6-1.08,7.17-1.72,10.76-.46,2.06-4.32,10-5.16,6.47-.23-2.32,3-9.08,3.92-11.63.67-1.91,1.22-3.76,1.74-5.71,1.44-6.81,2.31-10.7,1.47-17.8a48.68,48.68,0,0,0-2.11-8c-.93-2.3-2.61-5.61-4.82-6.91,2.18,1,3.92,4,4.84,6.12Z" />
        <path fill="#5a4a45"
          d="M79,207.56s0,.08,0,.12a38.45,38.45,0,0,1,2.63,8.61,39.82,39.82,0,0,1,0,11.33c-.28,2.21-.6,4.42-.9,6.61-.55,3.58-1.07,7.11-1.67,10.68a13.82,13.82,0,0,1-.82,2.58,13.65,13.65,0,0,1-1.94,3.25c-.35.43-1.19,1.3-1.79,1.28a.44.44,0,0,1-.36-.19,1.32,1.32,0,0,1-.14-.45v-.32a8.55,8.55,0,0,1,.5-2.27,44.53,44.53,0,0,1,1.7-4.55c.59-1.42,1.19-2.84,1.71-4.26.67-1.95,1.25-3.86,1.77-5.83.61-3,1.25-5.89,1.59-9a36.07,36.07,0,0,0-.11-8.87A48.5,48.5,0,0,0,79,208.23h0v0c-1-2.32-2.66-5.62-4.87-7v.23c0,.06,0,.15,0,.23,2.14,1,3.85,4,4.78,6,0,0,0-.09,0-.15a1,1,0,0,1,.07-.15c-1-2.08-2.7-5.18-4.91-6.2v.41C76.37,203,78,206.2,79,208.49a.78.78,0,0,1,0-.14s0,.08,0,.11A50,50,0,0,1,81,216.32a36.57,36.57,0,0,1,.14,8.87,89.3,89.3,0,0,1-1.62,8.93c-.53,1.92-1,3.71-1.72,5.6s-1.56,3.83-2.31,5.77c-.41,1-.79,2-1.1,3a10.17,10.17,0,0,0-.55,2.56,2.53,2.53,0,0,0,0,.46,1.35,1.35,0,0,0,.2.73.84.84,0,0,0,.4.2,2,2,0,0,0,1.19-.62,10,10,0,0,0,2.06-2.74,12.85,12.85,0,0,0,1.45-4c.64-3.57,1.22-7.25,1.71-10.85.32-2.19.64-4.4.9-6.61a40.19,40.19,0,0,0,0-11.33,38.18,38.18,0,0,0-2.72-8.88,1,1,0,0,0-.07.15Z" />
        <path fill="#5a4a45"
          d="M143.64,209.45c.67.52,1.33,1.07,2,1.59A169.31,169.31,0,0,0,165,225.13,125,125,0,0,0,193.92,238c10.12,2.82,20.24,4,30.19,6.88,8.72,2.72,15.56,6.49,23.78,10.18a274.71,274.71,0,0,0,25.95,9.31c2.54.8,5.07,1.59,7.56,2.52,5.25,1.88,10.56,3.54,15.72,5.59,6.44,2.7,11.66,6,17.71,9.28,1.49.81,18.24,9.43,19.41,7.22-.26-7.39-6.12-13.17-11-18.15a57.47,57.47,0,0,0-19.84-13.6c-7.25-2.72-13.83-3.71-21.49-4.69-1.76-.24-3.56-.47-5.36-.7a169.24,169.24,0,0,1-25.4-5.19c-8.79-2.73-16.32-5.89-25.43-7.92-10.32-1.92-20.36-2.44-30.74-4.66a115.09,115.09,0,0,1-28.7-11.2,160,160,0,0,1-19.49-13.31c-.46-.37-1-.76-1.45-1.1-6.27-4.76-10.38-7.42-18.06-9.68-10.3-2.5-20.94-2.73-31.46-3.14,10.41.76,21,1.31,31.14,4.21,7.1,2.31,10.93,4.92,16.67,9.57Z" />
        <path fill="#FEFEFE"
          d="M222.8,247.9c.14.08.29.2.44.29,7.6,4.69,14.15,9.1,22.36,12.87a105.18,105.18,0,0,0,27.33,7.51c5.43.78,10.76,1.25,16.22,1.77a24.52,24.52,0,0,0,9.25-.9c1.42-.32,7.22-1.65,4.12-3.92a9.14,9.14,0,0,0-2.15-.84c-6.15-1.15-13.37.29-19.55,1a56,56,0,0,1-7.33.29A74.7,74.7,0,0,1,246,259.9c-7.86-3.51-14.47-7.86-21.95-11.92-.23-.15-.47-.26-.67-.4-3.45-2.41-8.15-5.17-10.27-8.91,1.54,3.66,6.47,7,9.66,9.23Z" />
        <path fill="#5a4a45"
          d="M222.8,247.9a1.14,1.14,0,0,0-.26,0c.2.12.43.3.67.44,7.59,4.64,14.15,9.05,22.32,12.81a93.27,93.27,0,0,0,10,3.69,117.11,117.11,0,0,0,17.4,3.82c5.48.79,10.87,1.28,16.35,1.8a25.59,25.59,0,0,0,9-.75s.09,0,.14,0c1.31-.26,4.61-1,5.28-2.32a1.06,1.06,0,0,0,0-.87,3,3,0,0,0-1-1l-.67-.35a10.42,10.42,0,0,0-1.63-.55,2.41,2.41,0,0,0-.48-.12,23.3,23.3,0,0,0-4.33-.37c-5,0-10,.92-15,1.5a61.39,61.39,0,0,1-7,.29A74,74,0,0,1,251.74,262c-1.94-.67-3.8-1.37-5.69-2.18-7.8-3.51-14.32-7.79-21.74-11.89a1.84,1.84,0,0,0-.23.06h.28c-.31-.2-.6-.38-.92-.55-3.31-2.35-7.89-5.1-9.92-8.7a7.2,7.2,0,0,1-.72-.12c1.48,3.72,6.58,7.11,9.74,9.31a1.14,1.14,0,0,1,.26,0c.09,0,.14,0,.23,0-3.07-2.15-8-5.57-9.51-9.14a1.59,1.59,0,0,0-.38-.06l-.34,0c2.35,3.91,6.84,6.61,10.55,9.07.18.09.32.18.46.26,7.6,4.09,14.24,8.47,22.19,12,1.89.81,3.71,1.5,5.65,2.17a75.81,75.81,0,0,0,21.81,3.95,63.61,63.61,0,0,0,7.66-.3c3.76-.43,7.53-1,11.33-1.33a43.13,43.13,0,0,1,5.57,0,19.62,19.62,0,0,1,2.14.29,1.3,1.3,0,0,1,.15,0,11.44,11.44,0,0,1,1.62.55l.38.17a1.34,1.34,0,0,1,.64.67.85.85,0,0,1,0,.82c-.75,1.24-3.11,1.82-4.44,2.17-.2.06-.43.12-.64.2a23.39,23.39,0,0,1-8.84.81c-5.42-.49-10.7-.95-16.1-1.74a121.92,121.92,0,0,1-17.36-3.8,89,89,0,0,1-9.95-3.71c-8.21-3.77-14.76-8.2-22.36-12.9a.86.86,0,0,0-.23-.17c-.09,0-.14,0-.23,0Z" />
        <path fill="#FEFEFE"
          d="M174.87,221.74c7.4,1.68,14.59,3.74,22,5.33,10.26,2.06,20.15,3.23,30.24,6.36a81.47,81.47,0,0,1,15.08,6.81,27,27,0,0,1,8.4,7.8c.76,1.22,2.36,3.79-.46,3.25l-.73-.23c-5.27-2.44-11.42-8.79-17-12.36a49,49,0,0,0-5.94-3.07c-9.77-4.18-19.57-5.45-29.9-7.62-7-1.51-13.88-3.51-20.73-5.52a53.58,53.58,0,0,0-8.52-1.44,19,19,0,0,0-5.48-.21,15.33,15.33,0,0,1,5.65-.08,43.7,43.7,0,0,1,7.31,1Z" />
        <path fill="#5a4a45"
          d="M174.87,221.74a2.43,2.43,0,0,1,.14.2c7.31,1.65,14.47,3.69,21.84,5.25,4.12.82,8.2,1.54,12.35,2.24a130.65,130.65,0,0,1,17.92,4.11,80.49,80.49,0,0,1,15,6.76,23.11,23.11,0,0,1,3.75,2.72,26.06,26.06,0,0,1,4.23,4.61,5.29,5.29,0,0,1,.46.67,3.9,3.9,0,0,1,.81,2.5.48.48,0,0,1-.43.37,1.61,1.61,0,0,1-.84-.06,3.46,3.46,0,0,1-.53-.14s0,0,0,0a17.71,17.71,0,0,1-3.46-2c-2.26-1.59-4.4-3.42-6.52-5.22a66.08,66.08,0,0,0-6.73-5,50.33,50.33,0,0,0-6.2-3.18c-7.34-3.17-14.27-4.53-22-6-2.63-.52-5.28-1-7.89-1.59-7-1.54-14-3.54-20.88-5.54h0s0,0,0,0a51.83,51.83,0,0,0-8.27-1.45,20.2,20.2,0,0,0-5.91-.29l.35.26.34.26a13.6,13.6,0,0,1,5.2-.17,40.88,40.88,0,0,1,7.59,1,1.93,1.93,0,0,1-.17-.2c-.06-.06-.09-.12-.15-.14a40.83,40.83,0,0,0-7-1,15.56,15.56,0,0,0-6.12,0,7.38,7.38,0,0,0,.64.5,18.36,18.36,0,0,1,5.07.17,47.89,47.89,0,0,1,8.82,1.45l-.18-.21c0,.06.09.12.12.18,6.87,2,13.6,3.88,20.59,5.45,2.61.55,5.24,1.07,7.88,1.59,7.52,1.46,15,2.9,22,6.06a49,49,0,0,1,5.72,2.93,86.62,86.62,0,0,1,9,6.82c1.39,1.16,2.81,2.35,4.32,3.39a20.13,20.13,0,0,0,3.89,2.26h0a6.62,6.62,0,0,0,.79.26,3.19,3.19,0,0,0,1.31.09.77.77,0,0,0,.52-.46,2.87,2.87,0,0,0-.49-1.95,15.71,15.71,0,0,0-.85-1.33,25.64,25.64,0,0,0-2.61-3.07,27.53,27.53,0,0,0-5.68-4.5,83.43,83.43,0,0,0-15.25-6.9,134.6,134.6,0,0,0-18-4.09c-4.12-.73-8.24-1.42-12.29-2.26-7.48-1.56-14.79-3.74-22.22-5.36.06,0,.09.08.15.14Z" />
        <path fill="#5a4a45"
          d="M74.68,279.3c9.72-17.51,9.4-25.58,13.2-44.22,2.52-12.38,3.42-25.08,4.2-37.67.79,12.73,1.48,25.54.55,38.31-1.1,14.47-9.39,31.86-17.95,43.58Z" />
        <path fill="#5a4a45"
          d="M103.68,36.08c9.37,21.25,12.06,34.35,9.72,57.12-.84,8.18-2.76,19.66-1.11,27.37l1.63,4.87c-2.53-5.36-2.81-5.07-3.83-11.66-.72-4.8-1.19-29.68-1-35.57.55-18.42.17-23.61-5.4-42.13Z" />
        <path fill="#5a4a45"
          d="M161.82,164c4.26,1.21,9.05,1.56,13.42,2.11a88,88,0,0,1,24.45,6.67c9.05,4.38,15.69,9.6,23.32,16s14.52,12.84,22.55,18.56c7.6,5.07,14.62,8.44,22.71,12.49,7.74,3.89,13.83,7.25,20.67,12.62a118.32,118.32,0,0,1,9.66,9,130.38,130.38,0,0,0,10.49,9.86c5.28,4.14,11.14,7.59,15.31,12.78,2.26,3.08,12.74,23.72,13.72,23.41,4.84-8.91,1.22-21.69-2.52-30.19-4.93-8.41-10.27-11.63-18-17.13-4.47-3.23-8.84-6.59-13.34-9.81-3.13-2.21-6.18-4.32-9.42-6.32a137.69,137.69,0,0,0-23.43-11.16c-8.21-3.13-15.17-5.74-22.85-10.18-8.3-5-15.55-10.93-23.2-16.82-8.17-6.23-15.17-11.22-24.67-15.43a91.42,91.42,0,0,0-25.26-6.14,106.32,106.32,0,0,1-12.44-1.6,31.15,31.15,0,0,1-5.89-2c-7.16-3.57-13.48-8.59-19.8-13.44-4-3.12-8-6.17-12.21-9-2.87-2-5.72-3.85-8.64-5.71,2.87,1.94,5.65,3.91,8.46,5.94,4.07,3,8,6.2,11.92,9.37,6.27,5.1,12.53,10.32,19.66,14.12a36.84,36.84,0,0,0,5.28,2.12Z" />
        <path fill="#FEFEFE"
          d="M242.32,208.49c.46.55,1,1.07,1.47,1.59,7.11,6.65,13.66,10.38,22.22,14.79,7.1,3.62,13.69,6.9,20.44,11.17,6.23,4,12.18,8.38,18.41,12.38a23.45,23.45,0,0,0,4.67,2.34c1.57.64,14.47,4.1,10.41-.49-1.71-1.48-5-2.87-7.05-3.86-4.81-2-9.62-4.08-14.38-6.22-3.77-1.74-7.33-3.72-11-5.66-7-3.77-14-7.08-21.08-10.62-8.49-4.29-15.07-8-22.33-14.32l-.46-.46c-3.1-3.19-7.39-8.82-7.94-13.4,0,4.2,4,9.74,6.61,12.76Z" />
        <path fill="#5a4a45"
          d="M242.32,208.49a2.85,2.85,0,0,1-.29-.12c.55.61,1.1,1.22,1.68,1.8,7.13,6.64,13.72,10.38,22.27,14.79,3.28,1.71,6.58,3.36,9.89,5.07,3.62,1.92,7,3.86,10.52,6.09,6.29,4,12.26,8.44,18.53,12.5a30.12,30.12,0,0,0,4.49,2.29,24.67,24.67,0,0,0,6,1.86c1.18.17,4.55.49,5.42-.58a.87.87,0,0,0,.14-.76,3.09,3.09,0,0,0-.86-1.16,6.65,6.65,0,0,0-.59-.46,15.65,15.65,0,0,0-1.94-1.25c-1.51-.81-3.05-1.53-4.58-2.26,0,0-.06,0-.09-.05-4.87-2-9.77-4.12-14.58-6.3-3.69-1.71-7.17-3.59-10.76-5.48-4.9-2.67-9.83-5.1-14.85-7.57-2.06-1-4.15-2-6.23-3.07-8.49-4.29-15.05-8-22.3-14.36l-.29-.29a.71.71,0,0,1-.23-.05,3,3,0,0,0,.29.11c-3-3.13-7.39-8.76-7.89-13.25l-.64-.49c-.11,4.2,4,9.89,6.62,12.87a2.85,2.85,0,0,0,.29.12,1.49,1.49,0,0,0,.28.11c-2.58-2.93-6.64-8.49-6.55-12.61l-.34-.26a2.61,2.61,0,0,1-.3-.23c.44,4.58,4.93,10.38,8,13.57.23.2.46.4.67.61,7.24,6.32,13.83,10,22.35,14.32,2.06,1.05,4.15,2.06,6.21,3.07,5,2.44,9.92,4.88,14.81,7.58,3.75,2,7.4,4,11.29,5.79,3.65,1.69,7.39,3.28,11.13,4.85,1,.4,2,.8,3,1.24l2.69,1.25c.79.37,1.57.78,2.33,1.19a13.14,13.14,0,0,1,1.56,1l.35.25a1.79,1.79,0,0,1,.52.76.65.65,0,0,1-.12.69c-.84,1.11-4.2.73-5.33.55a23.39,23.39,0,0,1-5.2-1.56,24.21,24.21,0,0,1-4.83-2.41c-6.18-4-12.07-8.32-18.27-12.29-3.48-2.2-6.9-4.18-10.56-6.09-3.3-1.74-6.61-3.39-9.89-5.08-8.55-4.43-15.11-8.14-22.18-14.81-.43-.47-.87-.9-1.28-1.37a1.49,1.49,0,0,1-.28-.11Z" />
        <path fill="#FEFEFE"
          d="M199.72,165.48c1,.24,1.94.47,2.93.76,10.61,3.13,18.09,8.12,26.76,14.79,7.37,5.85,14.26,12.15,21.75,17.83,3.86,2.84,7.66,5.25,11.74,7.71a35,35,0,0,1,8.26,6.91c.79,1,4,4.89.39,3.8a10.89,10.89,0,0,1-1.72-.82c-5.76-3.36-11.22-8.29-16.27-12.67-1.18-1-2.37-2.09-3.56-3.16-7-6.49-13.74-12.88-21.17-18.9-8.58-6.76-15.91-11.58-26.39-15.06-.4-.11-.81-.23-1.22-.37-4.37-1.14-12.08-2.24-16.38-.15,3.6-2.29,11-1.47,14.88-.67Z" />
        <path fill="#5a4a45"
          d="M199.72,165.48a1.55,1.55,0,0,0,.23.21c.9.2,1.77.41,2.64.66,10.61,3.11,18.09,8.1,26.73,14.76,2.21,1.72,4.33,3.48,6.47,5.25,5.07,4.27,10,8.59,15.31,12.59,3.83,2.81,7.6,5.22,11.66,7.66a36.81,36.81,0,0,1,8.32,7.07c.08.12.17.21.23.29.44.52,1.8,2.32,1.45,3a.44.44,0,0,1-.46.29,2.61,2.61,0,0,1-.9-.2,4.05,4.05,0,0,1-.55-.2c-.35-.17-.67-.35-1-.52-.93-.52-1.76-1.08-2.66-1.69-2.38-1.65-4.71-3.45-6.93-5.33s-4.27-3.66-6.39-5.48c-1.27-1.1-2.55-2.24-3.82-3.33-6.18-5.72-12.21-11.43-18.65-16.85-.84-.7-1.68-1.37-2.52-2.06-8.58-6.76-15.92-11.57-26.39-15l-1.45-.44h0s0,0-.06,0c-4.46-1.16-12.2-2.19-16.55-.08a3,3,0,0,1,.4.11c.15,0,.29.07.44.09,3.54-2.23,10.9-1.39,14.73-.52a2.47,2.47,0,0,1-.29-.24l-.26-.17c-3.92-.81-11.42-1.62-15,.73l.75.2c4.41-2,11.86-.93,16.33.29-.09-.09-.21-.15-.3-.23.09,0,.15.14.24.2l.95.29c10.48,3.45,17.78,8.26,26.37,15l2.51,2c6.44,5.45,12.48,11.14,18.66,16.88,1.12,1,2.26,2,3.38,3,2.88,2.52,5.69,5.05,8.7,7.43,1.51,1.19,3.05,2.37,4.64,3.45,1,.72,2,1.36,3.1,2,.32.17.67.32,1,.49s.55.23.84.32a3.1,3.1,0,0,0,1.37.29c.23,0,.46-.08.55-.32.23-.49-.26-1.39-.53-1.82a17.91,17.91,0,0,0-1.74-2.24,27.09,27.09,0,0,0-2.11-2.18,37.4,37.4,0,0,0-6-4.55c-4.15-2.49-8-4.93-11.92-7.76-5.25-4-10.21-8.33-15.28-12.59-2.12-1.8-4.27-3.54-6.44-5.25-8.67-6.7-16.18-11.69-26.76-14.82-1.08-.32-2.15-.58-3.25-.84l.26.17Z" />
        <path fill="#5a4a45"
          d="M185.89,198.78c14.55,4.87,20.27,8.4,33.66,15.11,12.61,6.32,21.78,8.11,34.4,15.91,9.62,5.95,11.76,6.27,21.86,10.52,13.34,5.61,19.13,13.2,33.43,16.21,9.27,2,10.12,2.21,16.85,8.76-7-6-7.8-6.18-17-7.5-14.94-2.16-20.76-9.23-34.54-14-14.87-5.14-13.63-3.57-27-12.62-8.92-6-19.42-9.51-29.08-15.16-12.9-7.57-18.32-11.46-32.5-17.25Z" />
        <path fill="#5a4a45"
          d="M84,142.14c-6.11-8.46-3-10.67-4.75-13.6-2.87-4.87-22.09-3.48-26.85-2-17.92,5.65-19.43,28-1.28,31.22,7.8,1.37,22.94-.84,26.07.2,2.24.76,2.84,2.27,3.74,4.3a10.08,10.08,0,0,0-1.74-2.61c-5.1-5.17-31.46,9.62-42.8-6.15-9.74-13.54.17-28,15-31.14,5.31-1.13,26.13-1.16,29.17,5.5,1.68,3.66-1.83,5.17,3.48,14.24Z" />
        <path fill="#5a4a45"
          d="M93.36,112.34c.64-2.38,1.28-4.7,1.83-7.08a104.52,104.52,0,0,0,2.81-21c.17-8.78-.53-17.3-1.07-26.06-.53-8-1-16.41-1-24.45,0-1,0-2,0-3a131.65,131.65,0,0,0-1-15.43C94.93,13.34,95.6.44,94.52,0c-6.73,1.13-9,8.82-10.12,14.53-.67,6.61.78,12.5,2.29,18.87L87,34.94c2,7.89,3.48,15.75,4.93,23.75a196,196,0,0,1,3.51,25.52,95.33,95.33,0,0,1-1.69,20.73c-.46,2.23-1,4.44-1.5,6.67a53.7,53.7,0,0,0-1.22,6.73c-.29,3.68.11,6.5.2,10.06a14.23,14.23,0,0,1-1.19,6.12,12.93,12.93,0,0,1-2.49,3.36,13.26,13.26,0,0,0,2.64-3.27,13.49,13.49,0,0,0,1.5-6.21c.12-3.48-.2-6.35.24-10a55.65,55.65,0,0,1,1.39-6.11Z" />
        <path fill="#FEFEFE"
          d="M99.51,64a41.43,41.43,0,0,0,1-6.27,76.71,76.71,0,0,0-2-24.38,78.36,78.36,0,0,0-2.14-7.66c-.93-2.46-5.77-8.7-6.67-5.57.12,2.68,4.17,8.53,5.62,11.11a20.56,20.56,0,0,1,1.16,2.41c3.46,7.56,3.77,16,3.36,24.18a47.82,47.82,0,0,1-.61,5.45c-.58,2.61-1.74,6.06-3.94,7.8,2.27-1.42,3.54-4.64,4.21-7.07Z" />
        <path fill="#5a4a45"
          d="M99.51,64a.24.24,0,0,0,0,.14,39.53,39.53,0,0,0,1.07-6.41,76.16,76.16,0,0,0-.25-14.4,73.16,73.16,0,0,0-1.77-10c-.59-2.61-1.34-5.25-2.15-7.78a11.75,11.75,0,0,0-3-4.72c-.69-.64-2.08-1.71-3.07-1.65a.71.71,0,0,0-.52.2,1.16,1.16,0,0,0-.26.67,1.37,1.37,0,0,0,0,.35,5.53,5.53,0,0,0,.23,1.1,15.14,15.14,0,0,0,1,2.23c1.36,2.64,3.07,5.07,4.49,7.66a24.32,24.32,0,0,1,1.1,2.23,36.34,36.34,0,0,1,3.16,12.09,69.78,69.78,0,0,1,.24,12.09c-.12,1.77-.35,3.6-.64,5.33l.08.12s0-.12,0-.14c-.58,2.55-1.74,6-3.91,7.71a2.7,2.7,0,0,1,0,.41c2.29-1.37,3.57-4.67,4.23-7.11a.24.24,0,0,1,0-.14.42.42,0,0,0-.09-.14c-.64,2.37-1.92,5.62-4.14,7a.9.9,0,0,1,0,.23c0,.06,0,.12.06.18,2.21-1.72,3.4-5.25,4-7.86.3-1.89.5-3.68.64-5.57a81.29,81.29,0,0,0-.26-12.09A37.94,37.94,0,0,0,96.6,33.64a23.09,23.09,0,0,0-1.24-2.55c-1.07-2-2.32-3.86-3.45-5.77-.52-.93-1.07-1.89-1.51-2.84-.14-.38-.32-.76-.43-1.16a4.41,4.41,0,0,1-.21-.87v-.21a.57.57,0,0,1,.21-.41.58.58,0,0,1,.46-.2c1-.05,2.35,1,3,1.63a10.94,10.94,0,0,1,2.87,4.55c.84,2.52,1.51,5,2.11,7.59a70.54,70.54,0,0,1,1.8,10,72.36,72.36,0,0,1,.23,14.42,35.75,35.75,0,0,1-1,6.09.42.42,0,0,1,.09.14Z" />
        <path fill="#FEFEFE"
          d="M91.94,93.75c-.58-3.19-.9-6.36-1.25-9.57A200.53,200.53,0,0,1,89.27,59c0-.87,0-1.74,0-2.61.17-2,2.75-10.55,4.12-7.16.37,2.32-1,7.08-1.51,9.48-.23.87-.46,1.77-.61,2.67-1.28,7.77-.81,15,0,22.82.27,3,.52,5.91.84,8.87.38,2.26,1.1,5.6,2.73,7.34-1.71-1.45-2.52-4.53-2.93-6.64Z" />
        <path fill="#5a4a45"
          d="M91.94,93.75a.41.41,0,0,0,.09-.12c-.58-3.13-.9-6.26-1.25-9.45s-.7-6.47-.93-9.74c-.38-5.2-.58-10.27-.52-15.49,0-.84,0-1.68.06-2.52a11.82,11.82,0,0,1,.43-2.67,12.68,12.68,0,0,1,1.42-3.51c.26-.46,1-1.44,1.54-1.5a.4.4,0,0,1,.38.11.81.81,0,0,1,.2.44,1.13,1.13,0,0,1,.06.32,8.86,8.86,0,0,1-.15,2.29c-.26,1.62-.64,3.21-1,4.81-.18.64-.32,1.33-.46,2a25.43,25.43,0,0,0-.58,2.52,67.06,67.06,0,0,0-.61,15.58c.14,2.49.34,4.93.63,7.39.26,3,.53,6,.84,9h0v0c.38,2.29,1.08,5.65,2.73,7.42,0-.06,0-.15.06-.2s0-.11.06-.18c-1.71-1.44-2.5-4.52-2.9-6.61,0,.06-.06.09-.09.15a1.25,1.25,0,0,0-.09.12c.44,2.14,1.22,5.24,3,6.72,0-.11.09-.23.12-.34-1.63-1.8-2.32-5-2.7-7.34a.56.56,0,0,0-.09.14,1.25,1.25,0,0,1,.09-.12c-.32-2.92-.58-5.82-.84-8.75-.26-2.46-.49-4.9-.64-7.39a66,66,0,0,1,.61-15.32c.17-.95.41-1.88.64-2.78.26-1.13.52-2.23.78-3.34a31.58,31.58,0,0,0,.64-3.16,9.87,9.87,0,0,0,.14-2.61,1.93,1.93,0,0,0-.06-.45,1.66,1.66,0,0,0-.31-.67.51.51,0,0,0-.44-.15c-.4,0-.81.47-1,.75a11,11,0,0,0-1.63,3,13.19,13.19,0,0,0-.84,4.21c0,.89,0,1.79,0,2.69-.07,5.19.14,10.29.49,15.48.26,3.25.55,6.48.93,9.72s.66,6.46,1.24,9.69a1.25,1.25,0,0,1,.09-.12Z" />
      </g>
    </g>
  </symbol>
  <!-- ###########################_mail-icons_################################## -->

</svg>